<svg xmlns="http://www.w3.org/2000/svg" viewBox="0 0 400 400" width="400" height="400" preserveAspectRatio="xMidYMid meet" style="width: 100%; height: 100%; transform: translate3d(0px, 0px, 0px);"><defs><clipPath id="__lottie_element_8"><rect width="400" height="400" x="0" y="0"></rect></clipPath></defs><g clip-path="url(#__lottie_element_8)"><g transform="matrix(1.4958966970443726,-0.11491914838552475,0.11491914838552475,1.4958966970443726,114.39842987060547,86.17777252197266)" opacity="1" style="display: block;"><path stroke-linecap="round" stroke-linejoin="miter" fill-opacity="0" stroke-miterlimit="4" stroke="rgb(255,255,255)" stroke-opacity="1" stroke-width="4" d=" M-8.354000091552734,20.115999221801758 C-8.354000091552734,20.115999221801758 -12.220000267028809,-1.1449999809265137 -15.119000434875488,-6.622000217437744 C-18.01799964904785,-12.097999572753906 -13.185999870300293,-12.743000030517578 -13.185999870300293,-12.743000030517578 C-13.185999870300293,-12.743000030517578 5.821000099182129,-18.783000946044922 19.35099983215332,6.9079999923706055"></path></g><g transform="matrix(1.575950026512146,0,0,1.575950026512146,193,202)" opacity="1" style="display: block;"><path stroke-linecap="round" stroke-linejoin="miter" fill-opacity="0" stroke-miterlimit="4" stroke="rgb(255,255,255)" stroke-opacity="1" stroke-width="4" d=" M-65.9209976196289,-61.224998474121094 C-71.947998046875,-51.97200012207031 -77.35700225830078,-38.93000030517578 -79.62999725341797,-27.733999252319336 C-90.96499633789062,-27.613000869750977 -97.61000061035156,-26.27899932861328 -97.5999984741211,-12.189000129699707 C-97.59500122070312,-4.133999824523926 -97.21900177001953,9.277000427246094 -94.5510025024414,17.59600067138672 C-92.50199890136719,23.98699951171875 -83.92400360107422,24.650999069213867 -75.47100067138672,22.322999954223633 C-67.5780029296875,42.82500076293945 -52.361000061035156,59.68899917602539 -33.020999908447266,69.70700073242188 C-33.020999908447266,69.70700073242188 -33.020999908447266,93.13099670410156 -33.020999908447266,93.13099670410156 C-33.020999908447266,96.56099700927734 -30.239999771118164,99.34200286865234 -26.809999465942383,99.34200286865234 C-26.809999465942383,99.34200286865234 -6.695000171661377,99.34200286865234 -6.695000171661377,99.34200286865234 C-3.265000104904175,99.34200286865234 -0.48399999737739563,96.56099700927734 -0.48399999737739563,93.13099670410156 C-0.48399999737739563,93.13099670410156 -0.48399999737739563,79.27999877929688 -0.48399999737739563,79.27999877929688 C2.3399999141693115,79.5479965209961 5.198999881744385,79.69100189208984 8.093000411987305,79.69100189208984 C11.399999618530273,79.69100189208984 14.663999557495117,79.50700378417969 17.878000259399414,79.15699768066406 C17.878000259399414,79.15699768066406 17.878000259399414,92.50199890136719 17.878000259399414,92.50199890136719 C17.878000259399414,96.27999877929688 20.94099998474121,99.34200286865234 24.7189998626709,99.34200286865234 C24.7189998626709,99.34200286865234 43.57500076293945,99.34200286865234 43.57500076293945,99.34200286865234 C47.35300064086914,99.34200286865234 50.415000915527344,96.27999877929688 50.415000915527344,92.50199890136719 C50.415000915527344,92.50199890136719 50.415000915527344,69.06999969482422 50.415000915527344,69.06999969482422 C78.50800323486328,53.96799850463867 97.61000061035156,24.30299949645996 97.61000061035156,-9.826000213623047 C97.61000061035156,-59.26499938964844 57.53200149536133,-99.34200286865234 8.093000411987305,-99.34200286865234 C-9.22700023651123,-99.34200286865234 -25.398000717163086,-94.4229965209961 -39.0989990234375,-85.90599822998047 M-179.57400512695312,25.381999969482422"></path><g opacity="1" transform="matrix(1,0,0,1,0,0)"><path fill="rgb(59,47,29)" fill-opacity="1" d=" M-179.57400512695312,25.381999969482422"></path><path stroke-linecap="round" stroke-linejoin="miter" fill-opacity="0" stroke-miterlimit="4" stroke="rgb(255,255,255)" stroke-opacity="1" stroke-width="4" d=" M-179.57400512695312,25.381999969482422"></path></g></g><g transform="matrix(1.575950026512146,0,0,1.575950026512146,193,202)" opacity="1" style="display: block;"><path stroke-linecap="round" stroke-linejoin="miter" fill-opacity="0" stroke-miterlimit="4" stroke="rgb(255,255,255)" stroke-opacity="1" stroke-width="4" d=" M-15.682999610900879,-78.96600341796875 C-15.682999610900879,-78.96600341796875 -7.0370001792907715,-83.44499969482422 3.4030001163482666,-84.40299987792969 C20.95400047302246,-86.01399993896484 30.91200065612793,-78.33100128173828 30.91200065612793,-78.33100128173828"></path></g><g transform="matrix(1.1431310176849365,0,0,1.1431310176849365,360.9994201660156,138.00067138671875)" opacity="1" style="display: block;"><path stroke-linecap="round" stroke-linejoin="miter" fill-opacity="0" stroke-miterlimit="4" stroke="rgb(255,255,255)" stroke-opacity="1" stroke-width="5" d=" M-17.757999420166016,6.764999866485596 C-6.886000156402588,8.939000129699707 -1.0880000591278076,14.979999542236328 0.3619999885559082,0 C1.812000036239624,-14.979999542236328 -18.482999801635742,-11.11400032043457 -8.697999954223633,0 C1.0870000123977661,11.11400032043457 12.684000015258789,3.2769999504089355 18.482999801635742,-9.838000297546387"></path></g><g transform="matrix(0.6492125988006592,0,0,1.0000033378601074,107.99955749511719,259.5001220703125)" opacity="1" style="display: block;"><g opacity="1" transform="matrix(1,0,0,1,-16.37700080871582,-93.70500183105469)"><path fill="rgb(59,47,29)" fill-opacity="1" d=" M0,-4.795000076293945 C1.171683669090271,-4.795000076293945 2.122999906539917,-2.6463606357574463 2.122999906539917,0 C2.122999906539917,2.6463606357574463 1.171683669090271,4.795000076293945 0,4.795000076293945 C-1.171683669090271,4.795000076293945 -2.122999906539917,2.6463606357574463 -2.122999906539917,0 C-2.122999906539917,-2.6463606357574463 -1.171683669090271,-4.795000076293945 0,-4.795000076293945z"></path><path stroke-linecap="butt" stroke-linejoin="miter" fill-opacity="0" stroke-miterlimit="4" stroke="rgb(255,255,255)" stroke-opacity="1" stroke-width="4" d=" M0,-4.795000076293945 C1.171683669090271,-4.795000076293945 2.122999906539917,-2.6463606357574463 2.122999906539917,0 C2.122999906539917,2.6463606357574463 1.171683669090271,4.795000076293945 0,4.795000076293945 C-1.171683669090271,4.795000076293945 -2.122999906539917,2.6463606357574463 -2.122999906539917,0 C-2.122999906539917,-2.6463606357574463 -1.171683669090271,-4.795000076293945 0,-4.795000076293945z"></path></g></g></g></svg>