<svg xmlns="http://www.w3.org/2000/svg" viewBox="0 0 400 400" width="400" height="400" preserveAspectRatio="xMidYMid meet" style="width: 100%; height: 100%; transform: translate3d(0px, 0px, 0px);"><defs><clipPath id="__lottie_element_19"><rect width="400" height="400" x="0" y="0"></rect></clipPath></defs><g clip-path="url(#__lottie_element_19)"><g transform="matrix(1,0,0,1,155,288)" opacity="1" style="display: block;"><path stroke-linecap="butt" stroke-linejoin="miter" fill-opacity="0" stroke-miterlimit="4" stroke="rgb(255,255,255)" stroke-opacity="1" stroke-width="6" d=" M-115.00800323486328,-21.53499984741211 C-115.00800323486328,-21.53499984741211 -60.433998107910156,-43.71799850463867 -60.433998107910156,-43.71799850463867 C-46.50400161743164,-49.38199996948242 -30.91200065612793,-47.92499923706055 -25.03700065612793,-43.573001861572266 C-15.178999900817871,-36.266998291015625 -5.316999912261963,-28.966999053955078 4.535999774932861,-21.665000915527344 C45.57699966430664,8.743000030517578 48.89799880981445,1.1460000276565552 97.24700164794922,4.03000020980835 C107.96099853515625,4.664000034332275 115.00900268554688,21.917999267578125 97.24700164794922,28.749000549316406 C52.11899948120117,49.382999420166016 24.267000198364258,40.12699890136719 -16.8700008392334,19.06999969482422"></path></g><g transform="matrix(1,0,0,1,213,303)" opacity="1" style="display: block;"><path stroke-linecap="butt" stroke-linejoin="miter" fill-opacity="0" stroke-miterlimit="4" stroke="rgb(255,255,255)" stroke-opacity="1" stroke-width="6" d=" M43.82899856567383,-9.86299991607666 C43.82899856567383,-9.86299991607666 107.48200225830078,-39.763999938964844 107.48200225830078,-39.763999938964844 C145.19400024414062,-67.177001953125 158.52999877929688,-32.46500015258789 141.73199462890625,-23.941999435424805 C141.73199462890625,-23.941999435424805 58.275001525878906,28.775999069213867 58.275001525878906,28.775999069213867 C58.275001525878906,28.775999069213867 22.899999618530273,51.12900161743164 22.899999618530273,51.12900161743164 C-2.132999897003174,66.93099975585938 -35.1619987487793,67.177001953125 -44.45500183105469,61.632999420166016 C-97.26100158691406,48.012001037597656 -112.49299621582031,35.05699920654297 -158.52999877929688,40.96699905395508"></path></g><g transform="matrix(0.9022899866104126,0,0,0.9022899866104126,208,161)" opacity="1" style="display: block;"><path stroke-linecap="butt" stroke-linejoin="miter" fill-opacity="0" stroke-miterlimit="4" stroke="rgb(255,255,255)" stroke-opacity="1" stroke-width="6" d=" M62.12900161743164,143.28799438476562 C107.03900146484375,121.1240005493164 150.76499938964844,70.13300323486328 150.76499938964844,7.4770002365112305 C150.76499938964844,-75.78800201416016 83.26499938964844,-143.28799438476562 0,-143.28799438476562 C-83.26499938964844,-143.28799438476562 -150.76499938964844,-75.78800201416016 -150.76499938964844,7.4770002365112305 C-150.76499938964844,49.65999984741211 -132.1479949951172,80.98400115966797 -126.28500366210938,89.86100006103516"></path></g><g transform="matrix(0.9324896931648254,0,0,0.9324896931648254,218.99981689453125,150.00018310546875)" opacity="1" style="display: block;"><path stroke-linecap="butt" stroke-linejoin="miter" fill-opacity="0" stroke-miterlimit="4" stroke="rgb(255,255,255)" stroke-opacity="1" stroke-width="6" d=" M34.784000396728516,-120.50900268554688 C-14.618000030517578,-94.04100036621094 -26.461999893188477,-94.22799682617188 -29.600000381469727,-78.91300201416016 C-32.737998962402344,-63.597999572753906 -17.165000915527344,-49.10100173950195 2.5920000076293945,-49.10100173950195 C22.349000930786133,-49.10100173950195 15.807999610900879,-19.382999420166016 15.807999610900879,-19.382999420166016 C15.807999610900879,-19.382999420166016 -1.847000002861023,-5.323999881744385 -20.191999435424805,-13.440999984741211 C-38.5369987487793,-21.558000564575195 -67.87000274658203,-35.04199981689453 -81.47200012207031,-13.440999984741211 C-95.0739974975586,8.15999984741211 -97.24800109863281,32.08000183105469 -87.82499694824219,43.676998138427734 C-78.4020004272461,55.27399826049805 -35.994998931884766,46.57600021362305 -32.19200134277344,58.89799880981445 C-28.388999938964844,71.22000122070312 -35.8849983215332,79.19300079345703 -29.600000381469727,84.26699829101562 C-23.315000534057617,89.34100341796875 -4.316999912261963,84.99199676513672 -2.944000005722046,92.96499633789062 C-1.5709999799728394,100.93800354003906 3.4690001010894775,120.50800323486328 15.807999610900879,118.33399963378906 C28.14699935913086,116.16000366210938 51.099998474121094,92.24099731445312 50.49599838256836,83.54299926757812 C49.891998291015625,74.84500122070312 60.33100128173828,71.22100067138672 65.98400115966797,66.87200164794922 C71.63700103759766,62.52299880981445 69.75399780273438,50.20000076293945 65.98400115966797,42.22700119018555 C62.2140007019043,34.25400161743164 83.95999908447266,13.234000205993652 78.16100311279297,8.885000228881836 C72.36199951171875,4.535999774932861 68.01300048828125,9.609999656677246 60.76499938964844,4.535999774932861 C53.516998291015625,-0.5379999876022339 36.527000427246094,-1.9869999885559082 41.7599983215332,-16.483999252319336 C46.99300003051758,-30.981000900268555 72.89099884033203,-25.18199920654297 79.1500015258789,-35.33000183105469 C85.40899658203125,-45.47800064086914 97.24800109863281,-77.31800079345703 97.24800109863281,-77.31800079345703"></path></g></g></svg>