<svg xmlns="http://www.w3.org/2000/svg" viewBox="0 0 400 400" width="400" height="400" preserveAspectRatio="xMidYMid meet" style="width: 100%; height: 100%; transform: translate3d(0px, 0px, 0px);"><defs><clipPath id="__lottie_element_28"><rect width="400" height="400" x="0" y="0"></rect></clipPath></defs><g clip-path="url(#__lottie_element_28)"><g transform="matrix(1,0,0,1,200.665771484375,111.9940185546875)" opacity="1" style="display: block;"><path stroke-linecap="butt" stroke-linejoin="miter" fill-opacity="0" stroke-miterlimit="4" stroke="rgb(255,255,255)" stroke-opacity="1" stroke-width="6" d=" M40.33300018310547,25.479999542236328 C34.04600143432617,48.176998138427734 16.94300079345703,64.70500183105469 0.6899999976158142,65.53099822998047 C-15.616000175476074,64.70500183105469 -32.77399826049805,48.073001861572266 -39.01300048828125,25.267000198364258 C-39.01300048828125,25.267000198364258 -42.0880012512207,25.766000747680664 -42.0880012512207,25.766000747680664 C-45.56399917602539,26.32699966430664 -48.84700012207031,23.827999114990234 -49.388999938964844,20.209999084472656 C-49.388999938964844,20.209999084472656 -52.402000427246094,0.03700000047683716 -52.402000427246094,0.03700000047683716 C-52.94200134277344,-3.5810000896453857 -50.540000915527344,-6.999000072479248 -47.06700134277344,-7.563000202178955 C-47.06700134277344,-7.563000202178955 -44.88199996948242,-7.915999889373779 -44.88199996948242,-7.915999889373779 C-45.85599899291992,-11.079000473022461 -46.38399887084961,-14.442000389099121 -46.38399887084961,-17.93400001525879 C-46.38399887084961,-17.93400001525879 -46.38399887084961,-25.361000061035156 -46.38399887084961,-25.361000061035156 C-46.38399887084961,-43.534000396728516 -32.099998474121094,-58.40299987792969 -14.642999649047852,-58.40299987792969 C-14.642999649047852,-58.40299987792969 -10.859000205993652,-58.40299987792969 -10.859000205993652,-58.40299987792969 C-10.89900016784668,-59.025001525878906 -10.82800006866455,-59.61800003051758 -10.625,-60.17399978637695 C-8.675000190734863,-65.53099822998047 4.3420000076293945,-65.36199951171875 18.447999954223633,-59.80099868774414 C21.44700050354004,-58.61600112915039 24.250999450683594,-57.2859992980957 26.79400062561035,-55.87099838256836 C38.268001556396484,-50.87799835205078 46.38399887084961,-39.058998107910156 46.38399887084961,-25.361000061035156 C46.38399887084961,-25.361000061035156 46.38399887084961,-17.93400001525879 46.38399887084961,-17.93400001525879 C46.38399887084961,-14.442000389099121 45.858001708984375,-11.079000473022461 44.882999420166016,-7.915999889373779 C44.882999420166016,-7.915999889373779 47.066001892089844,-7.563000202178955 47.066001892089844,-7.563000202178955 C50.54199981689453,-6.999000072479248 52.94200134277344,-3.5810000896453857 52.40299987792969,0.03700000047683716 C52.40299987792969,0.03700000047683716 49.38999938964844,20.209999084472656 49.38999938964844,20.209999084472656 C48.847999572753906,23.827999114990234 45.56399917602539,26.32699966430664 42.0890007019043,25.766000747680664 C42.0890007019043,25.766000747680664 40.33300018310547,25.479999542236328 40.33300018310547,25.479999542236328 C40.33300018310547,25.479999542236328 40.33300018310547,25.479999542236328 40.33300018310547,25.479999542236328z"></path></g><g transform="matrix(1,0,0,1,199.665771484375,80.9940185546875)" opacity="1" style="display: block;"><path stroke-linecap="butt" stroke-linejoin="miter" fill-opacity="0" stroke-miterlimit="4" stroke="rgb(255,255,255)" stroke-opacity="1" stroke-width="6" d=" M46.534000396728516,20.575000762939453 C45.28099822998047,13.605999946594238 35.28900146484375,-6.441999912261963 21.363000869750977,-9.418999671936035 C-1.9880000352859497,18.28700065612793 -35.4379997253418,-16.325000762939453 -43.534000396728516,18.378000259399414"></path></g><g transform="matrix(1,0,0,1,202.665771484375,208.9940185546875)" opacity="1" style="display: block;"><g opacity="1" transform="matrix(1,0,0,1,0,0)"><path fill="rgb(59,47,29)" fill-opacity="1" d=" M-13.375,-60.25 C-13.375,-60.25 -8,-58.625 -0.625,-58.625 C6.75,-58.625 11,-60.625 11,-60.625"></path><path stroke-linecap="round" stroke-linejoin="miter" fill-opacity="0" stroke-miterlimit="4" stroke="rgb(255,255,255)" stroke-opacity="1" stroke-width="4" d=" M-13.375,-60.25 C-13.375,-60.25 -8,-58.625 -0.625,-58.625 C6.75,-58.625 11,-60.625 11,-60.625"></path></g></g><g transform="matrix(0.6492199897766113,0,0,1,198.665771484375,210.4940185546875)" opacity="1" style="display: block;"><g opacity="1" transform="matrix(1,0,0,1,-16.37700080871582,-93.70500183105469)"><path fill="rgb(59,47,29)" fill-opacity="1" d=" M0,-4.795000076293945 C1.171683669090271,-4.795000076293945 2.122999906539917,-2.6463606357574463 2.122999906539917,0 C2.122999906539917,2.6463606357574463 1.171683669090271,4.795000076293945 0,4.795000076293945 C-1.171683669090271,4.795000076293945 -2.122999906539917,2.6463606357574463 -2.122999906539917,0 C-2.122999906539917,-2.6463606357574463 -1.171683669090271,-4.795000076293945 0,-4.795000076293945z"></path><path stroke-linecap="butt" stroke-linejoin="miter" fill-opacity="0" stroke-miterlimit="4" stroke="rgb(255,255,255)" stroke-opacity="1" stroke-width="4" d=" M0,-4.795000076293945 C1.171683669090271,-4.795000076293945 2.122999906539917,-2.6463606357574463 2.122999906539917,0 C2.122999906539917,2.6463606357574463 1.171683669090271,4.795000076293945 0,4.795000076293945 C-1.171683669090271,4.795000076293945 -2.122999906539917,2.6463606357574463 -2.122999906539917,0 C-2.122999906539917,-2.6463606357574463 -1.171683669090271,-4.795000076293945 0,-4.795000076293945z"></path></g></g><g transform="matrix(0.6492199897766113,0,0,1,224.915771484375,210.4940185546875)" opacity="1" style="display: block;"><g opacity="1" transform="matrix(1,0,0,1,-16.37700080871582,-93.70500183105469)"><path fill="rgb(59,47,29)" fill-opacity="1" d=" M0,-4.795000076293945 C1.171683669090271,-4.795000076293945 2.122999906539917,-2.6463606357574463 2.122999906539917,0 C2.122999906539917,2.6463606357574463 1.171683669090271,4.795000076293945 0,4.795000076293945 C-1.171683669090271,4.795000076293945 -2.122999906539917,2.6463606357574463 -2.122999906539917,0 C-2.122999906539917,-2.6463606357574463 -1.171683669090271,-4.795000076293945 0,-4.795000076293945z"></path><path stroke-linecap="butt" stroke-linejoin="miter" fill-opacity="0" stroke-miterlimit="4" stroke="rgb(255,255,255)" stroke-opacity="1" stroke-width="4" d=" M0,-4.795000076293945 C1.171683669090271,-4.795000076293945 2.122999906539917,-2.6463606357574463 2.122999906539917,0 C2.122999906539917,2.6463606357574463 1.171683669090271,4.795000076293945 0,4.795000076293945 C-1.171683669090271,4.795000076293945 -2.122999906539917,2.6463606357574463 -2.122999906539917,0 C-2.122999906539917,-2.6463606357574463 -1.171683669090271,-4.795000076293945 0,-4.795000076293945z"></path></g></g><g transform="matrix(1,0,0,1,200,325)" opacity="1" style="display: block;"><path stroke-linecap="butt" stroke-linejoin="miter" fill-opacity="0" stroke-miterlimit="4" stroke="rgb(255,255,255)" stroke-opacity="1" stroke-width="6" d=" M142.9080047607422,-28.28700065612793 C142.9080047607422,-28.28700065612793 179.50799560546875,23.381000518798828 179.50799560546875,23.381000518798828 C181.16000366210938,25.538999557495117 177.0260009765625,28.28700065612793 174.15199279785156,28.28700065612793 C174.15199279785156,28.28700065612793 -174.1999969482422,28.28700065612793 -174.1999969482422,28.28700065612793 C-176.99400329589844,28.28700065612793 -181.16000366210938,25.645000457763672 -179.55599975585938,23.381000518798828 C-179.55599975585938,23.381000518798828 -142.94000244140625,-28.28700065612793 -142.94000244140625,-28.28700065612793"></path></g><g transform="matrix(1,0,0,1,200,200)" opacity="1" style="display: block;"><path stroke-linecap="round" stroke-linejoin="miter" fill-opacity="0" stroke-miterlimit="4" stroke="rgb(255,255,255)" stroke-opacity="1" stroke-width="6" d=" M74.8010025024414,-99.86299896240234 C74.8010025024414,-99.86299896240234 130.843994140625,-99.86299896240234 130.843994140625,-99.86299896240234 C138.73399353027344,-99.86299896240234 145.18800354003906,-93.37899780273438 145.18800354003906,-85.51899719238281 C145.18800354003906,-85.51899719238281 145.18800354003906,85.51699829101562 145.18800354003906,85.51699829101562 C145.18800354003906,93.31900024414062 138.64700317382812,99.86299896240234 130.8470001220703,99.86299896240234 C130.8470001220703,99.86299896240234 -130.84500122070312,99.86299896240234 -130.84500122070312,99.86299896240234 C-138.66900634765625,99.86299896240234 -145.18800354003906,93.41000366210938 -145.18800354003906,85.51699829101562 C-145.18800354003906,85.51699829101562 -145.18800354003906,-85.51899719238281 -145.18800354003906,-85.51899719238281 C-145.18800354003906,-93.41200256347656 -138.73500061035156,-99.86299896240234 -130.84500122070312,-99.86299896240234 C-130.84500122070312,-99.86299896240234 -74.38999938964844,-99.86299896240234 -74.38999938964844,-99.86299896240234 M-294,125"></path><g opacity="1" transform="matrix(1,0,0,1,0,0)"><path fill="rgb(59,47,29)" fill-opacity="1" d=" M-294,125"></path><path stroke-linecap="round" stroke-linejoin="miter" fill-opacity="0" stroke-miterlimit="4" stroke="rgb(255,255,255)" stroke-opacity="1" stroke-width="6" d=" M-294,125"></path></g></g><g transform="matrix(1,0,0,1,193,200)" opacity="1" style="display: block;"><path stroke-linecap="round" stroke-linejoin="miter" fill-opacity="0" stroke-miterlimit="4" stroke="rgb(255,255,255)" stroke-opacity="1" stroke-width="6" d=" M43.3120002746582,-14.470999717712402 C54.62300109863281,-6.318999767303467 89.56300354003906,1.5679999589920044 98.89800262451172,3.5360000133514404 C109.12000274658203,5.692999839782715 121.37899780273438,12.980999946594238 121.37899780273438,25.56999969482422 C121.37899780273438,25.56999969482422 121.37899780273438,31.232999801635742 121.37899780273438,31.232999801635742 C121.37899780273438,31.232999801635742 115.68299865722656,96.58100128173828 115.68299865722656,96.58100128173828"></path></g><g transform="matrix(1,0,0,1,200,200)" opacity="1" style="display: block;"><path stroke-linecap="butt" stroke-linejoin="miter" fill-opacity="0" stroke-miterlimit="4" stroke="rgb(255,255,255)" stroke-opacity="1" stroke-width="6" d=" M-18.496999740600586,98.625 C-18.496999740600586,98.625 -6.2170000076293945,21.29199981689453 -6.2170000076293945,21.29199981689453 C-6.2170000076293945,21.29199981689453 -16.624000549316406,-6.625 -16.624000549316406,-6.625 C-16.624000549316406,-6.625 0,-4.375 0,-4.375 C0,-4.375 16.964000701904297,-6.625 16.964000701904297,-6.625 C16.964000701904297,-6.625 6.561999797821045,21.29199981689453 6.561999797821045,21.29199981689453 C6.561999797821045,21.29199981689453 18.496999740600586,98.625 18.496999740600586,98.625"></path></g><g transform="matrix(1,0,0,1,204,200)" opacity="1" style="display: block;"><path stroke-linecap="round" stroke-linejoin="miter" fill-opacity="0" stroke-miterlimit="4" stroke="rgb(255,255,255)" stroke-opacity="1" stroke-width="6" d=" M-112.68299865722656,95.58100128173828 C-112.68299865722656,95.58100128173828 -118.38200378417969,30.232999801635742 -118.38200378417969,30.232999801635742 C-118.38200378417969,30.232999801635742 -118.38200378417969,24.56999969482422 -118.38200378417969,24.56999969482422 C-118.38200378417969,11.967000007629395 -106.125,4.692999839782715 -95.9010009765625,2.5360000133514404 C-86.56300354003906,0.5680000185966492 -51.617000579833984,-7.318999767303467 -40.30799865722656,-15.470999717712402 C-40.30799865722656,-15.470999717712402 -39.61800003051758,-15.581000328063965 -39.61800003051758,-15.581000328063965"></path></g></g></svg>