<svg xmlns="http://www.w3.org/2000/svg" viewBox="0 0 400 400" width="400" height="400" preserveAspectRatio="xMidYMid meet" style="width: 100%; height: 100%; transform: translate3d(0px, 0px, 0px);"><defs><clipPath id="__lottie_element_79"><rect width="400" height="400" x="0" y="0"></rect></clipPath></defs><g clip-path="url(#__lottie_element_79)"><g transform="matrix(1,0,0,1,201,109)" opacity="1" style="display: block;"><path stroke-linecap="butt" stroke-linejoin="miter" fill-opacity="0" stroke-miterlimit="4" stroke="rgb(255,255,255)" stroke-opacity="1" stroke-width="6" d=" M-125.70700073242188,18.854000091552734 C-125.70700073242188,18.854000091552734 -155.66099548339844,6.954999923706055 -155.66099548339844,6.954999923706055 C-161.51100158691406,4.631999969482422 -162.18600463867188,-3.815000057220459 -157.00799560546875,-5.9710001945495605 C-157.00799560546875,-5.9710001945495605 -8.515000343322754,-67.8489990234375 -8.515000343322754,-67.8489990234375 C-3.3359999656677246,-70.00499725341797 4.118000030517578,-69.35800170898438 10.059000015258789,-66.91100311279297 C10.059000015258789,-66.91100311279297 155.86399841308594,-6.908999919891357 155.86399841308594,-6.908999919891357 C161.81300354003906,-4.464000225067139 162.18600463867188,3.946000099182129 157.2100067138672,6.019999980926514 C157.2100067138672,6.019999980926514 8.713000297546387,67.8949966430664 8.713000297546387,67.8949966430664 C3.6459999084472656,70.00499725341797 -3.943000078201294,69.3949966430664 -9.855999946594238,66.95800018310547 C-9.855999946594238,66.95800018310547 -125.70700073242188,18.854000091552734 -125.70700073242188,18.854000091552734z"></path></g><g transform="matrix(1,0,0,1,127,142)" opacity="1" style="display: block;"><path stroke-linecap="round" stroke-linejoin="miter" fill-opacity="0" stroke-miterlimit="4" stroke="rgb(255,255,255)" stroke-opacity="1" stroke-width="6" d=" M-60.59299850463867,71.83799743652344 C-61.207000732421875,115.6259994506836 -38.277000427246094,138.4739990234375 -68.29199981689453,166.16200256347656 C-68.29199981689453,166.16200256347656 -95.7239990234375,145.82699584960938 -95.7239990234375,145.82699584960938 C-76.33300018310547,134.677001953125 -61.19900131225586,108.45999908447266 -60.59299850463867,71.83799743652344z M-62,39.67599868774414 C-62,39.67599868774414 -62,39.67599868774414 -62,39.67599868774414 C-53.53799819946289,39.67599868774414 -46.67599868774414,46.53799819946289 -46.67599868774414,55 C-46.67599868774414,63.46200180053711 -53.53799819946289,70.3239974975586 -62,70.3239974975586 C-70.46199798583984,70.3239974975586 -77.3239974975586,63.46200180053711 -77.3239974975586,55 C-77.3239974975586,46.53799819946289 -70.46199798583984,39.67599868774414 -62,39.67599868774414z M-62.15599822998047,39.74800109863281 C-61.720001220703125,18.374000549316406 -65.50299835205078,-3.7090001106262207 -58.54199981689453,-17.143999099731445 C-58.54199981689453,-17.143999099731445 65.50299835205078,-39.74800109863281 65.50299835205078,-39.74800109863281"></path></g><g transform="matrix(1,0,0,1,201,182)" opacity="1" style="display: block;"><path stroke-linecap="round" stroke-linejoin="miter" fill-opacity="0" stroke-miterlimit="4" stroke="rgb(255,255,255)" stroke-opacity="1" stroke-width="6" d=" M92.34600067138672,-40.137001037597656 C92.34600067138672,-40.137001037597656 92.34600067138672,-5.103000164031982 92.34600067138672,-5.103000164031982 C92.34600067138672,19.885000228881836 50.99700164794922,40.137001037597656 -0.004000000189989805,40.137001037597656 C-51.00299835205078,40.137001037597656 -92.34600067138672,19.885000228881836 -92.34600067138672,-5.103000164031982 C-92.34600067138672,-5.103000164031982 -92.34600067138672,-35.64400100708008 -92.34600067138672,-35.64400100708008"></path></g><g transform="matrix(1,0,0,1,202,274)" opacity="1" style="display: block;"><path stroke-linecap="round" stroke-linejoin="miter" fill-opacity="0" stroke-miterlimit="4" stroke="rgb(255,255,255)" stroke-opacity="1" stroke-width="6" d=" M-101.49099731445312,-20 C-101.49099731445312,-20 103.49099731445312,-20 103.49099731445312,-20 M76.68199920654297,37.72800064086914 C59.6870002746582,22.381999969482422 30.764999389648438,12.272000312805176 -2.058000087738037,12.272000312805176 C-34.805999755859375,12.272000312805176 -63.672000885009766,22.333999633789062 -80.68199920654297,37.62300109863281 M58.85900115966797,-57.71699905395508 C61.90700149536133,-46.80799865722656 63.54499816894531,-35.2599983215332 63.54499816894531,-23.312000274658203 C63.54499816894531,18.76799964904785 43.27000045776367,56.861000061035156 12.454999923706055,78.71700286865234 M-1.9989999532699585,78.36100006103516 C-1.9989999532699585,78.36100006103516 -2.000999927520752,-50.361000061035156 -2.000999927520752,-50.361000061035156 M-62,-59.46699905395508 C-64.95800018310547,-48.70600128173828 -66.54100036621094,-36.32899856567383 -66.54100036621094,-24.562000274658203 C-66.54100036621094,17.51799964904785 -46.27199935913086,54.611000061035156 -15.458999633789062,76.46700286865234 M-85.72799682617188,-79.39600372314453 C-96.3479995727539,-63.244998931884766 -102.53600311279297,-43.91699981689453 -102.53600311279297,-23.141000747680664 C-102.53600311279297,33.49100112915039 -56.62900161743164,79.39600372314453 -0.0010000000474974513,79.39299774169922 C56.62900161743164,79.39299774169922 102.53600311279297,33.48899841308594 102.53600311279297,-23.141000747680664 C102.53600311279297,-43.91699981689453 96.35399627685547,-63.24800109863281 85.7300033569336,-79.39600372314453"></path></g></g></svg>