<svg xmlns="http://www.w3.org/2000/svg" viewBox="0 0 400 400" width="400" height="400" preserveAspectRatio="xMidYMid meet" style="width: 100%; height: 100%; transform: translate3d(0px, 0px, 0px);"><defs><clipPath id="__lottie_element_49"><rect width="400" height="400" x="0" y="0"></rect></clipPath></defs><g clip-path="url(#__lottie_element_49)"><g transform="matrix(1,0,0,1,161,185)" opacity="1" style="display: block;"><path stroke-linecap="butt" stroke-linejoin="miter" fill-opacity="0" stroke-miterlimit="4" stroke="rgb(255,255,255)" stroke-opacity="1" stroke-width="6" d=" M26.242000579833984,16.577999114990234 C22.150999069213867,31.344999313354492 11.02400016784668,42.099998474121094 0.4490000009536743,42.637001037597656 C-10.15999984741211,42.099998474121094 -21.323999404907227,31.277000427246094 -25.382999420166016,16.43899917602539 C-25.382999420166016,16.43899917602539 -27.384000778198242,16.763999938964844 -27.384000778198242,16.763999938964844 C-29.645000457763672,17.128999710083008 -31.781999588012695,15.503000259399414 -32.13399887084961,13.14900016784668 C-32.13399887084961,13.14900016784668 -34.09400177001953,0.024000000208616257 -34.09400177001953,0.024000000208616257 C-34.44599914550781,-2.3299999237060547 -32.882999420166016,-4.553999900817871 -30.62299919128418,-4.921000003814697 C-30.62299919128418,-4.921000003814697 -29.201000213623047,-5.151000022888184 -29.201000213623047,-5.151000022888184 C-29.834999084472656,-7.209000110626221 -30.179000854492188,-9.395999908447266 -30.179000854492188,-11.668000221252441 C-30.179000854492188,-11.668000221252441 -30.179000854492188,-16.500999450683594 -30.179000854492188,-16.500999450683594 C-30.179000854492188,-28.325000762939453 -20.885000228881836,-37.999000549316406 -9.527000427246094,-37.999000549316406 C-9.527000427246094,-37.999000549316406 -7.065000057220459,-37.999000549316406 -7.065000057220459,-37.999000549316406 C-7.091000080108643,-38.40399932861328 -7.045000076293945,-38.790000915527344 -6.913000106811523,-39.1510009765625 C-5.644000053405762,-42.63600158691406 2.825000047683716,-42.527000427246094 12.003000259399414,-38.909000396728516 C13.954000473022461,-38.13800048828125 15.779999732971191,-37.27299880981445 17.43400001525879,-36.35200119018555 C24.89900016784668,-33.10300064086914 30.179000854492188,-25.413999557495117 30.179000854492188,-16.500999450683594 C30.179000854492188,-16.500999450683594 30.179000854492188,-11.668000221252441 30.179000854492188,-11.668000221252441 C30.179000854492188,-9.395999908447266 29.836999893188477,-7.209000110626221 29.20199966430664,-5.151000022888184 C29.20199966430664,-5.151000022888184 30.62299919128418,-4.921000003814697 30.62299919128418,-4.921000003814697 C32.8849983215332,-4.553999900817871 34.44599914550781,-2.3299999237060547 34.095001220703125,0.024000000208616257 C34.095001220703125,0.024000000208616257 32.1349983215332,13.14900016784668 32.1349983215332,13.14900016784668 C31.783000946044922,15.503000259399414 29.645999908447266,17.128999710083008 27.385000228881836,16.763999938964844 C27.385000228881836,16.763999938964844 26.242000579833984,16.577999114990234 26.242000579833984,16.577999114990234 C26.242000579833984,16.577999114990234 26.242000579833984,16.577999114990234 26.242000579833984,16.577999114990234z"></path></g><g transform="matrix(1,0,0,1,200,325)" opacity="1" style="display: block;"><path stroke-linecap="butt" stroke-linejoin="miter" fill-opacity="0" stroke-miterlimit="4" stroke="rgb(255,255,255)" stroke-opacity="1" stroke-width="6" d=" M142.9080047607422,-28.28700065612793 C142.9080047607422,-28.28700065612793 179.50799560546875,23.381000518798828 179.50799560546875,23.381000518798828 C181.16000366210938,25.538999557495117 177.0260009765625,28.28700065612793 174.15199279785156,28.28700065612793 C174.15199279785156,28.28700065612793 -174.1999969482422,28.28700065612793 -174.1999969482422,28.28700065612793 C-176.99400329589844,28.28700065612793 -181.16000366210938,25.645000457763672 -179.55599975585938,23.381000518798828 C-179.55599975585938,23.381000518798828 -142.94000244140625,-28.28700065612793 -142.94000244140625,-28.28700065612793"></path></g><g transform="matrix(1,0,0,1,200,200)" opacity="1" style="display: block;"><path stroke-linecap="round" stroke-linejoin="miter" fill-opacity="0" stroke-miterlimit="4" stroke="rgb(255,255,255)" stroke-opacity="1" stroke-width="6" d=" M145.18800354003906,-24.02899932861328 C145.18800354003906,-24.02899932861328 145.18800354003906,85.51599884033203 145.18800354003906,85.51599884033203 C145.18800354003906,93.31800079345703 138.64700317382812,99.86299896240234 130.8470001220703,99.86299896240234 C130.8470001220703,99.86299896240234 -130.843994140625,99.86299896240234 -130.843994140625,99.86299896240234 C-138.66799926757812,99.86299896240234 -145.18800354003906,93.40899658203125 -145.18800354003906,85.51599884033203 C-145.18800354003906,85.51599884033203 -145.18800354003906,-85.5199966430664 -145.18800354003906,-85.5199966430664 C-145.18800354003906,-93.41300201416016 -138.73399353027344,-99.86299896240234 -130.843994140625,-99.86299896240234 C-130.843994140625,-99.86299896240234 -29.95199966430664,-99.86299896240234 -29.95199966430664,-99.86299896240234"></path></g><g transform="matrix(1,0,0,1,213,267)" opacity="1" style="display: block;"><path stroke-linecap="round" stroke-linejoin="miter" fill-opacity="0" stroke-miterlimit="4" stroke="rgb(255,255,255)" stroke-opacity="1" stroke-width="6" d=" M-25.17099952697754,-31.979000091552734 C-17.812000274658203,-26.676000595092773 4.921000003814697,-21.54400062561035 10.994999885559082,-20.26300048828125 C17.645999908447266,-18.860000610351562 25.621000289916992,-14.118000030517578 25.621000289916992,-5.927000045776367 C25.621000289916992,-5.927000045776367 25.621000289916992,-2.242000102996826 25.621000289916992,-2.242000102996826 C25.621000289916992,-2.242000102996826 21.916000366210938,32.04999923706055 21.916000366210938,32.04999923706055"></path></g><g transform="matrix(0.8418499827384949,0,0,0.8418499827384949,286,104)" opacity="1" style="display: block;"><path stroke-linecap="butt" stroke-linejoin="miter" fill-opacity="0" stroke-miterlimit="4" stroke="rgb(255,255,255)" stroke-opacity="1" stroke-width="6" d=" M-0.003000000026077032,-94.84700012207031 C-0.003000000026077032,-94.84700012207031 -0.003000000026077032,-94.84700012207031 -0.003000000026077032,-94.84700012207031 C55.70600128173828,-94.84700012207031 100.87000274658203,-56.69599914550781 100.87000274658203,-9.63599967956543 C100.87000274658203,37.42599868774414 55.70600128173828,75.57599639892578 -0.003000000026077032,75.57599639892578 C-11.125,75.57599639892578 -21.81999969482422,74.0510025024414 -31.823999404907227,71.24400329589844 C-43.150001525878906,81.3489990234375 -49.404998779296875,84.94599914550781 -69.89099884033203,94.84700012207031 C-69.89099884033203,94.84700012207031 -70.09200286865234,51.63800048828125 -70.09200286865234,51.63800048828125 C-89.06800079345703,36.145999908447266 -100.87000274658203,14.416999816894531 -100.87000274658203,-9.63599967956543 C-100.87000274658203,-56.69599914550781 -55.709999084472656,-94.84700012207031 -0.003000000026077032,-94.84700012207031z"></path></g><g transform="matrix(1,0,0,1,109,266)" opacity="1" style="display: block;"><path stroke-linecap="round" stroke-linejoin="miter" fill-opacity="0" stroke-miterlimit="4" stroke="rgb(255,255,255)" stroke-opacity="1" stroke-width="6" d=" M-21.916000366210938,32.04999923706055 C-21.916000366210938,32.04999923706055 -25.62299919128418,-2.242000102996826 -25.62299919128418,-2.242000102996826 C-25.62299919128418,-2.242000102996826 -25.62299919128418,-5.927000045776367 -25.62299919128418,-5.927000045776367 C-25.62299919128418,-14.126999855041504 -17.64900016784668,-18.860000610351562 -10.996999740600586,-20.26300048828125 C-4.921000003814697,-21.54400062561035 17.81599998474121,-26.676000595092773 25.173999786376953,-31.979000091552734 C25.173999786376953,-31.979000091552734 25.62299919128418,-32.04999923706055 25.62299919128418,-32.04999923706055"></path></g><g transform="matrix(1,0,0,1,119,268)" opacity="1" style="display: block;"><path stroke-linecap="round" stroke-linejoin="miter" fill-opacity="0" stroke-miterlimit="4" stroke="rgb(255,255,255)" stroke-opacity="1" stroke-width="6" d=" M114,-195 C114,-195 219,-195 219,-195"></path></g><g transform="matrix(1,0,0,1,119,293)" opacity="1" style="display: block;"><path stroke-linecap="round" stroke-linejoin="miter" fill-opacity="0" stroke-miterlimit="4" stroke="rgb(255,255,255)" stroke-opacity="1" stroke-width="6" d=" M114,-195 C114,-195 219,-195 219,-195"></path></g><g transform="matrix(1,0,0,1,119,319)" opacity="1" style="display: block;"><path stroke-linecap="round" stroke-linejoin="miter" fill-opacity="0" stroke-miterlimit="4" stroke="rgb(255,255,255)" stroke-opacity="1" stroke-width="6" d=" M114,-195 C114,-195 192,-195 192,-195"></path></g></g></svg>