<svg xmlns="http://www.w3.org/2000/svg" viewBox="0 0 400 400" width="400" height="400" preserveAspectRatio="xMidYMid meet" style="width: 100%; height: 100%; transform: translate3d(0px, 0px, 0px);"><defs><clipPath id="__lottie_element_68"><rect width="400" height="400" x="0" y="0"></rect></clipPath></defs><g clip-path="url(#__lottie_element_68)"><g transform="matrix(1.57501220703125,-0.054361939430236816,0.054361939430236816,1.57501220703125,182.0727996826172,218.47764587402344)" opacity="1" style="display: block;"><path stroke-linecap="round" stroke-linejoin="miter" fill-opacity="0" stroke-miterlimit="4" stroke="rgb(255,255,255)" stroke-opacity="1" stroke-width="4" d=" M36.77,64.02 C36.77,64.02 28.53,101.14 28.53,101.14 C28.53,101.14 56.42,86.5 56.42,86.5 C56.42,86.5 83.69,100.02 83.69,100.02 C83.69,100.02 74.79,64.06 74.79,64.06"></path><g opacity="1" transform="matrix(0.9990500211715698,0,0,1.0089600086212158,0,0)"><path stroke-linecap="butt" stroke-linejoin="miter" fill-opacity="0" stroke-miterlimit="4" stroke="rgb(255,255,255)" stroke-opacity="1" stroke-width="4" d=" M36.80699920654297,63.448001861572266 C36.80699920654297,63.448001861572266 28.558000564575195,100.24600219726562 28.558000564575195,100.24600219726562 C28.558000564575195,100.24600219726562 56.47700119018555,85.7300033569336 56.47700119018555,85.7300033569336 C56.47700119018555,85.7300033569336 83.76699829101562,99.13400268554688 83.76699829101562,99.13400268554688 C83.76699829101562,99.13400268554688 74.86599731445312,63.487998962402344 74.86599731445312,63.487998962402344"></path></g></g><g transform="matrix(1.57501220703125,-0.054361939430236816,0.054361939430236816,1.57501220703125,182.0727996826172,218.47764587402344)" opacity="1" style="display: block;"><path stroke-linecap="round" stroke-linejoin="miter" fill-opacity="0" stroke-miterlimit="4" stroke="rgb(255,255,255)" stroke-opacity="1" stroke-width="4" d=" M55.77,-8.71 C76.9,-8.71 94.05,8.44 94.05,29.57 C94.05,50.69 76.9,67.84 55.77,67.84 C34.65,67.84 17.49,50.69 17.49,29.57 C17.49,8.44 34.65,-8.71 55.77,-8.71z"></path><g opacity="1" transform="matrix(1,0,0,1,55.770999908447266,29.566999435424805)"><path stroke-linecap="butt" stroke-linejoin="miter" fill-opacity="0" stroke-miterlimit="4" stroke="rgb(255,255,255)" stroke-opacity="1" stroke-width="4" d=" M0,-38.2765007019043 C21.124801635742188,-38.2765007019043 38.2765007019043,-21.124801635742188 38.2765007019043,0 C38.2765007019043,21.124801635742188 21.124801635742188,38.2765007019043 0,38.2765007019043 C-21.124801635742188,38.2765007019043 -38.2765007019043,21.124801635742188 -38.2765007019043,0 C-38.2765007019043,-21.124801635742188 -21.124801635742188,-38.2765007019043 0,-38.2765007019043z"></path></g></g><g transform="matrix(1.575950026512146,0,0,1.575950026512146,183,206)" opacity="1" style="display: block;"><path stroke-linecap="round" stroke-linejoin="miter" fill-opacity="0" stroke-miterlimit="4" stroke="rgb(255,255,255)" stroke-opacity="1" stroke-width="4" d=" M10.786999702453613,52.66699981689453 C10.786999702453613,52.66699981689453 -88.20099639892578,52.66699981689453 -88.20099639892578,52.66699981689453 C-88.20099639892578,52.66699981689453 -88.20099639892578,-77.41400146484375 -88.20099639892578,-77.41400146484375 C-88.20099639892578,-77.41400146484375 83.75900268554688,-77.41400146484375 83.75900268554688,-77.41400146484375 C83.75900268554688,-77.41400146484375 112.31300354003906,-51.39799880981445 112.31300354003906,-51.39799880981445 C112.31300354003906,-51.39799880981445 112.31300354003906,53.93600082397461 112.31300354003906,53.93600082397461 C112.31300354003906,53.93600082397461 100.89099884033203,53.93600082397461 100.89099884033203,53.93600082397461"></path></g><g transform="matrix(1.575950026512146,0,0,1.575950026512146,183,206)" opacity="1" style="display: block;"><path stroke-linecap="round" stroke-linejoin="miter" fill-opacity="0" stroke-miterlimit="4" stroke="rgb(255,255,255)" stroke-opacity="1" stroke-width="4" d=" M83.75900268554688,-74.24099731445312 C83.75900268554688,-74.24099731445312 85.02799987792969,-47.59000015258789 85.02799987792969,-47.59000015258789 C85.02799987792969,-47.59000015258789 111.04399871826172,-50.76300048828125 111.04399871826172,-50.76300048828125"></path></g><g fill="rgb(235,235,235)" font-size="36" font-family="Arial Rounded MT Bold" font-style="normal" font-weight="400" aria-label="1 Year
MSc/MBA" transform="matrix(1,0,0,1,65,134)" opacity="1" style="display: block;"><path stroke-linecap="butt" stroke-linejoin="round" stroke-miterlimit="4" d=" M10.81,-0.28 C11.24,0.2 11.82,0.44 12.53,0.44 C14.14,0.44 14.94,-0.74 14.94,-3.09 C14.94,-3.09 14.94,-23.22 14.94,-23.22 C14.94,-24.06 14.75,-24.73 14.38,-25.21 C14,-25.69 13.51,-25.93 12.88,-25.93 C12.33,-25.93 11.96,-25.82 11.76,-25.61 C11.56,-25.4 11.13,-24.84 10.48,-23.92 C9.82,-23.01 9.07,-22.18 8.22,-21.45 C7.37,-20.71 6.23,-20 4.82,-19.34 C3.87,-18.89 3.2,-18.53 2.83,-18.25 C2.45,-17.97 2.27,-17.53 2.27,-16.93 C2.27,-16.41 2.46,-15.96 2.84,-15.57 C3.22,-15.17 3.66,-14.98 4.15,-14.98 C5.18,-14.98 7.18,-16.12 10.16,-18.4 C10.16,-18.4 10.16,-2.41 10.16,-2.41 C10.16,-1.47 10.38,-0.76 10.81,-0.28z M39.67,-0.34 C40.15,0.18 40.78,0.44 41.55,0.44 C42.32,0.44 42.94,0.18 43.43,-0.35 C43.93,-0.88 44.17,-1.68 44.17,-2.74 C44.17,-2.74 44.17,-10.92 44.17,-10.92 C44.17,-10.92 50.62,-20.81 50.62,-20.81 C51.16,-21.62 51.54,-22.25 51.77,-22.71 C51.99,-23.17 52.1,-23.63 52.1,-24.08 C52.1,-24.64 51.88,-25.14 51.44,-25.57 C51,-26 50.45,-26.21 49.8,-26.21 C49.38,-26.21 49.02,-26.13 48.73,-25.98 C48.43,-25.83 48.17,-25.61 47.93,-25.32 C47.68,-25.03 47.47,-24.73 47.27,-24.4 C47.07,-24.07 46.82,-23.67 46.53,-23.19 C46.53,-23.19 41.66,-15.36 41.66,-15.36 C41.66,-15.36 36.84,-23.19 36.84,-23.19 C36.1,-24.39 35.55,-25.2 35.18,-25.6 C34.81,-26.01 34.27,-26.21 33.56,-26.21 C32.88,-26.21 32.3,-25.99 31.84,-25.56 C31.38,-25.12 31.15,-24.61 31.15,-24.01 C31.15,-23.65 31.26,-23.22 31.49,-22.73 C31.72,-22.24 32.11,-21.55 32.66,-20.67 C32.66,-20.67 38.95,-10.92 38.95,-10.92 C38.95,-10.92 38.95,-2.74 38.95,-2.74 C38.95,-1.66 39.19,-0.86 39.67,-0.34z M71.68,-8.67 C72.37,-9.03 72.72,-9.81 72.72,-11.02 C72.72,-12.32 72.39,-13.6 71.72,-14.85 C71.05,-16.11 70.04,-17.13 68.7,-17.92 C67.36,-18.71 65.75,-19.11 63.88,-19.11 C62.44,-19.11 61.12,-18.88 59.94,-18.41 C58.76,-17.95 57.76,-17.29 56.95,-16.42 C56.14,-15.55 55.53,-14.51 55.11,-13.3 C54.68,-12.08 54.47,-10.77 54.47,-9.35 C54.47,-6.34 55.33,-3.96 57.04,-2.2 C58.75,-0.44 61.15,0.44 64.23,0.44 C65.58,0.44 66.77,0.26 67.81,-0.09 C68.84,-0.44 69.7,-0.88 70.39,-1.42 C71.08,-1.95 71.59,-2.5 71.93,-3.08 C72.27,-3.66 72.44,-4.17 72.44,-4.61 C72.44,-5.1 72.29,-5.48 71.98,-5.75 C71.68,-6.02 71.28,-6.15 70.79,-6.15 C70.33,-6.15 69.98,-6.05 69.73,-5.84 C69.13,-5.27 68.65,-4.83 68.27,-4.5 C67.9,-4.17 67.49,-3.86 67.04,-3.58 C66.6,-3.29 66.14,-3.08 65.66,-2.94 C65.19,-2.81 64.66,-2.74 64.09,-2.74 C63.23,-2.74 62.45,-2.95 61.74,-3.38 C61.03,-3.8 60.46,-4.42 60.04,-5.26 C59.61,-6.09 59.39,-7.05 59.38,-8.14 C59.38,-8.14 68.76,-8.14 68.76,-8.14 C70.02,-8.14 70.99,-8.32 71.68,-8.67z M60.77,-14.53 C61.54,-15.35 62.52,-15.77 63.72,-15.77 C64.97,-15.77 65.98,-15.36 66.75,-14.55 C67.52,-13.73 67.96,-12.5 68.08,-10.86 C68.08,-10.86 59.38,-10.86 59.38,-10.86 C59.54,-12.48 60.01,-13.7 60.77,-14.53z M90.42,-0.25 C90.9,0.21 91.39,0.44 91.88,0.44 C92.46,0.44 92.99,0.24 93.45,-0.17 C93.91,-0.57 94.15,-1.02 94.15,-1.51 C94.15,-1.79 94,-2.42 93.7,-3.4 C93.4,-4.38 93.25,-5.32 93.25,-6.22 C93.26,-7.18 93.27,-8.06 93.28,-8.84 C93.28,-9.63 93.28,-10.58 93.28,-11.71 C93.28,-13.49 93.04,-14.92 92.54,-16 C92.04,-17.07 91.19,-17.86 89.98,-18.36 C88.77,-18.86 87.11,-19.11 85.01,-19.11 C83.12,-19.11 81.54,-18.85 80.28,-18.33 C79.01,-17.82 78.08,-17.16 77.48,-16.37 C76.88,-15.57 76.58,-14.75 76.58,-13.9 C76.58,-13.37 76.78,-12.92 77.17,-12.58 C77.57,-12.23 78.03,-12.06 78.57,-12.06 C79.17,-12.06 79.56,-12.17 79.74,-12.38 C79.92,-12.6 80.23,-13.05 80.67,-13.73 C81.11,-14.41 81.64,-14.92 82.25,-15.26 C82.87,-15.6 83.79,-15.77 85.01,-15.77 C86.42,-15.77 87.36,-15.47 87.81,-14.88 C88.26,-14.29 88.51,-13.36 88.57,-12.09 C87.57,-11.8 86.63,-11.55 85.77,-11.35 C84.91,-11.14 83.87,-10.92 82.67,-10.67 C81.46,-10.42 80.7,-10.27 80.4,-10.2 C78.95,-9.88 77.8,-9.26 76.97,-8.33 C76.14,-7.41 75.72,-6.29 75.72,-4.97 C75.72,-4 75.98,-3.1 76.48,-2.27 C76.98,-1.44 77.7,-0.78 78.63,-0.29 C79.56,0.2 80.65,0.44 81.88,0.44 C83.22,0.44 84.44,0.21 85.52,-0.24 C86.61,-0.69 87.73,-1.37 88.89,-2.27 C89.43,-1.39 89.94,-0.72 90.42,-0.25z M88.57,-8.53 C88.57,-6.86 88.36,-5.67 87.92,-4.94 C87.55,-4.28 86.96,-3.75 86.16,-3.33 C85.35,-2.91 84.48,-2.71 83.53,-2.71 C82.64,-2.71 81.92,-2.96 81.37,-3.47 C80.82,-3.98 80.54,-4.6 80.54,-5.33 C80.54,-6.03 80.77,-6.58 81.24,-6.97 C81.71,-7.36 82.2,-7.63 82.72,-7.76 C83.24,-7.9 84.16,-8.11 85.51,-8.39 C86.85,-8.68 87.87,-8.95 88.57,-9.21 C88.57,-9.21 88.57,-8.53 88.57,-8.53z M103.06,-10.15 C103.15,-11.15 103.32,-12.02 103.57,-12.74 C103.81,-13.47 104.16,-14.02 104.6,-14.39 C105.05,-14.76 105.62,-14.94 106.33,-14.94 C106.84,-14.94 107.44,-14.83 108.11,-14.62 C108.78,-14.4 109.21,-14.29 109.38,-14.29 C109.85,-14.29 110.29,-14.48 110.69,-14.86 C111.1,-15.24 111.3,-15.73 111.3,-16.31 C111.3,-17.14 110.83,-17.81 109.88,-18.32 C108.93,-18.82 107.95,-19.07 106.94,-19.07 C105.93,-19.07 105.13,-18.82 104.52,-18.32 C103.92,-17.81 103.33,-17.07 102.76,-16.08 C102.72,-17.07 102.53,-17.81 102.18,-18.32 C101.83,-18.82 101.25,-19.07 100.45,-19.07 C98.9,-19.07 98.12,-17.99 98.12,-15.84 C98.12,-15.84 98.12,-2.48 98.12,-2.48 C98.12,-1.52 98.34,-0.79 98.79,-0.3 C99.23,0.19 99.8,0.44 100.49,0.44 C101.19,0.44 101.77,0.2 102.23,-0.29 C102.69,-0.78 102.92,-1.51 102.92,-2.48 C102.92,-2.48 102.92,-6.49 102.92,-6.49 C102.92,-7.93 102.96,-9.15 103.06,-10.15z M11.93,41.87 C12.06,42.37 12.25,42.82 12.48,43.23 C12.71,43.64 13.04,43.98 13.46,44.24 C13.89,44.51 14.4,44.64 15.01,44.64 C15.82,44.64 16.45,44.43 16.91,44.02 C17.37,43.61 17.68,43.16 17.85,42.66 C18.02,42.16 18.24,41.38 18.51,40.32 C18.51,40.32 22.64,23.9 22.64,23.9 C22.64,23.9 22.64,41.69 22.64,41.69 C22.64,42.67 22.86,43.41 23.31,43.9 C23.75,44.39 24.32,44.64 25.01,44.64 C25.75,44.64 26.34,44.39 26.78,43.9 C27.22,43.41 27.44,42.67 27.44,41.69 C27.44,41.69 27.44,21.3 27.44,21.3 C27.44,20.17 27.15,19.41 26.56,19.02 C25.97,18.63 25.18,18.43 24.19,18.43 C24.19,18.43 22.57,18.43 22.57,18.43 C21.6,18.43 20.89,18.52 20.45,18.69 C20.01,18.87 19.69,19.19 19.48,19.64 C19.27,20.1 19.03,20.84 18.76,21.88 C18.76,21.88 15.01,35.99 15.01,35.99 C15.01,35.99 11.27,21.88 11.27,21.88 C11,20.84 10.76,20.1 10.55,19.64 C10.34,19.19 10.01,18.87 9.57,18.69 C9.13,18.52 8.43,18.43 7.45,18.43 C7.45,18.43 5.84,18.43 5.84,18.43 C4.84,18.43 4.05,18.63 3.46,19.02 C2.88,19.41 2.58,20.17 2.58,21.3 C2.58,21.3 2.58,41.69 2.58,41.69 C2.58,42.68 2.81,43.42 3.25,43.91 C3.7,44.4 4.27,44.64 4.97,44.64 C5.7,44.64 6.28,44.39 6.72,43.9 C7.16,43.41 7.38,42.67 7.38,41.69 C7.38,41.69 7.38,23.9 7.38,23.9 C7.38,23.9 11.51,40.32 11.51,40.32 C11.65,40.85 11.79,41.37 11.93,41.87z M51.69,33.17 C51.23,32.27 50.58,31.53 49.75,30.95 C48.93,30.36 47.93,29.86 46.75,29.45 C45.57,29.04 44.26,28.67 42.8,28.33 C41.64,28.03 40.81,27.81 40.31,27.66 C39.8,27.51 39.3,27.3 38.81,27.03 C38.32,26.76 37.93,26.43 37.65,26.06 C37.37,25.68 37.23,25.24 37.23,24.72 C37.23,23.89 37.64,23.18 38.47,22.59 C39.3,22 40.38,21.7 41.73,21.7 C43.18,21.7 44.24,21.97 44.89,22.52 C45.55,23.06 46.11,23.82 46.58,24.79 C46.95,25.47 47.28,25.96 47.59,26.26 C47.9,26.56 48.36,26.71 48.95,26.71 C49.61,26.71 50.16,26.46 50.6,25.96 C51.04,25.46 51.26,24.91 51.26,24.28 C51.26,23.6 51.08,22.91 50.73,22.19 C50.38,21.48 49.82,20.79 49.06,20.14 C48.3,19.49 47.34,18.97 46.19,18.58 C45.03,18.19 43.66,17.99 42.08,17.99 C40.1,17.99 38.38,18.29 36.91,18.88 C35.45,19.47 34.33,20.32 33.56,21.42 C32.78,22.52 32.4,23.78 32.4,25.2 C32.4,26.69 32.76,27.93 33.49,28.93 C34.23,29.94 35.22,30.73 36.47,31.31 C37.71,31.89 39.26,32.39 41.11,32.83 C42.5,33.14 43.6,33.44 44.43,33.72 C45.25,34 45.93,34.41 46.45,34.95 C46.97,35.48 47.23,36.17 47.23,37.03 C47.23,38.11 46.75,39.01 45.78,39.73 C44.81,40.45 43.56,40.81 42.01,40.81 C40.89,40.81 39.98,40.63 39.29,40.27 C38.6,39.91 38.06,39.46 37.68,38.91 C37.3,38.36 36.94,37.67 36.61,36.85 C36.35,36.16 36.02,35.64 35.64,35.29 C35.26,34.94 34.79,34.76 34.24,34.76 C33.56,34.76 33,34.99 32.56,35.44 C32.12,35.89 31.9,36.43 31.9,37.06 C31.9,38.15 32.27,39.28 33,40.43 C33.73,41.58 34.69,42.51 35.86,43.2 C37.51,44.16 39.61,44.64 42.15,44.64 C44.27,44.64 46.11,44.29 47.65,43.58 C49.2,42.88 50.38,41.91 51.18,40.67 C51.98,39.42 52.38,38.02 52.38,36.47 C52.38,35.17 52.15,34.07 51.69,33.17z M73.11,37.27 C72.72,36.83 72.23,36.61 71.65,36.61 C71.16,36.61 70.74,36.76 70.4,37.06 C70.06,37.37 69.74,37.79 69.45,38.33 C68.92,39.24 68.32,39.92 67.63,40.37 C66.95,40.81 66.12,41.04 65.16,41.04 C64.45,41.04 63.79,40.9 63.19,40.62 C62.6,40.35 62.09,39.94 61.66,39.41 C61.24,38.88 60.92,38.23 60.7,37.48 C60.47,36.72 60.36,35.89 60.36,34.99 C60.36,33.07 60.8,31.55 61.66,30.45 C62.53,29.34 63.67,28.78 65.09,28.78 C66.08,28.78 66.89,29.01 67.53,29.45 C68.16,29.9 68.78,30.57 69.36,31.46 C69.69,31.91 69.99,32.24 70.25,32.45 C70.51,32.65 70.85,32.76 71.24,32.76 C71.85,32.76 72.37,32.56 72.8,32.16 C73.23,31.76 73.44,31.27 73.44,30.7 C73.44,30.14 73.25,29.53 72.87,28.88 C72.49,28.23 71.94,27.62 71.22,27.04 C70.5,26.47 69.62,26 68.58,25.64 C67.54,25.27 66.4,25.09 65.16,25.09 C63.16,25.09 61.44,25.51 59.99,26.33 C58.55,27.16 57.45,28.33 56.69,29.84 C55.93,31.35 55.55,33.09 55.55,35.06 C55.55,37.97 56.38,40.28 58.04,42.01 C59.71,43.74 62.02,44.6 64.99,44.6 C66.38,44.6 67.63,44.42 68.75,44.04 C69.86,43.67 70.78,43.17 71.52,42.56 C72.25,41.94 72.79,41.29 73.15,40.61 C73.51,39.93 73.69,39.3 73.69,38.7 C73.69,38.19 73.49,37.72 73.11,37.27z M85.04,19.57 C85.04,19.08 84.89,18.69 84.58,18.41 C84.27,18.13 83.82,17.99 83.23,17.99 C82.55,17.99 82.09,18.19 81.86,18.59 C81.63,18.99 81.38,19.73 81.12,20.8 C81.12,20.8 76.22,41.07 76.22,41.07 C75.98,42.15 75.87,42.82 75.87,43.09 C75.87,44.12 76.46,44.64 77.66,44.64 C78.14,44.64 78.51,44.53 78.76,44.31 C79.01,44.1 79.2,43.8 79.32,43.41 C79.44,43.02 79.59,42.49 79.75,41.83 C79.75,41.83 84.67,21.56 84.67,21.56 C84.92,20.6 85.04,19.94 85.04,19.57z M97.43,41.87 C97.56,42.37 97.75,42.82 97.98,43.23 C98.21,43.64 98.54,43.98 98.96,44.24 C99.39,44.51 99.9,44.64 100.51,44.64 C101.32,44.64 101.95,44.43 102.41,44.02 C102.87,43.61 103.18,43.16 103.35,42.66 C103.52,42.16 103.74,41.38 104.01,40.32 C104.01,40.32 108.14,23.9 108.14,23.9 C108.14,23.9 108.14,41.69 108.14,41.69 C108.14,42.67 108.36,43.41 108.81,43.9 C109.25,44.39 109.82,44.64 110.51,44.64 C111.25,44.64 111.84,44.39 112.28,43.9 C112.72,43.41 112.94,42.67 112.94,41.69 C112.94,41.69 112.94,21.3 112.94,21.3 C112.94,20.17 112.65,19.41 112.06,19.02 C111.47,18.63 110.68,18.43 109.69,18.43 C109.69,18.43 108.07,18.43 108.07,18.43 C107.1,18.43 106.39,18.52 105.95,18.69 C105.51,18.87 105.19,19.19 104.98,19.64 C104.77,20.1 104.53,20.84 104.26,21.88 C104.26,21.88 100.51,35.99 100.51,35.99 C100.51,35.99 96.77,21.88 96.77,21.88 C96.5,20.84 96.26,20.1 96.05,19.64 C95.84,19.19 95.51,18.87 95.07,18.69 C94.63,18.52 93.93,18.43 92.95,18.43 C92.95,18.43 91.34,18.43 91.34,18.43 C90.34,18.43 89.55,18.63 88.96,19.02 C88.38,19.41 88.08,20.17 88.08,21.3 C88.08,21.3 88.08,41.69 88.08,41.69 C88.08,42.68 88.31,43.42 88.75,43.91 C89.2,44.4 89.77,44.64 90.47,44.64 C91.2,44.64 91.78,44.39 92.22,43.9 C92.66,43.41 92.88,42.67 92.88,41.69 C92.88,41.69 92.88,23.9 92.88,23.9 C92.88,23.9 97.01,40.32 97.01,40.32 C97.15,40.85 97.29,41.37 97.43,41.87z M132.87,44 C133.89,43.86 134.79,43.63 135.58,43.3 C136.83,42.75 137.83,41.9 138.57,40.75 C139.31,39.59 139.68,38.29 139.68,36.85 C139.68,33.74 137.98,31.64 134.6,30.56 C137.17,29.36 138.46,27.48 138.46,24.9 C138.46,24.15 138.34,23.44 138.09,22.76 C137.85,22.09 137.49,21.47 137.02,20.92 C136.55,20.36 136.01,19.9 135.4,19.54 C134.69,19.1 133.88,18.81 132.98,18.66 C132.08,18.51 131.01,18.43 129.78,18.43 C129.78,18.43 121.43,18.43 121.43,18.43 C120.32,18.43 119.51,18.68 119.01,19.18 C118.51,19.68 118.27,20.49 118.27,21.63 C118.27,21.63 118.27,41 118.27,41 C118.27,42.11 118.51,42.93 118.99,43.44 C119.48,43.95 120.29,44.2 121.43,44.2 C121.43,44.2 129.3,44.2 129.3,44.2 C130.66,44.2 131.85,44.13 132.87,44z M133.01,33.64 C133.93,34.22 134.38,35.17 134.38,36.47 C134.38,39.01 132.62,40.28 129.09,40.28 C129.09,40.28 123.49,40.28 123.49,40.28 C123.49,40.28 123.49,32.76 123.49,32.76 C123.49,32.76 128.92,32.76 128.92,32.76 C130.73,32.76 132.1,33.05 133.01,33.64z M127.72,22.35 C129.62,22.35 131.03,22.56 131.96,22.99 C132.88,23.42 133.35,24.28 133.35,25.58 C133.35,26.19 133.2,26.75 132.91,27.24 C132.53,27.93 131.99,28.4 131.28,28.64 C130.57,28.89 129.57,29.01 128.27,29.01 C128.27,29.01 123.49,29.01 123.49,29.01 C123.49,29.01 123.49,22.35 123.49,22.35 C123.49,22.35 127.72,22.35 127.72,22.35z M161.27,42.66 C161.5,43.18 161.71,43.57 161.91,43.82 C162.11,44.07 162.36,44.27 162.65,44.42 C162.94,44.57 163.29,44.64 163.7,44.64 C164.41,44.64 165.01,44.39 165.51,43.89 C166,43.39 166.25,42.85 166.25,42.25 C166.25,41.67 165.99,40.75 165.46,39.49 C165.46,39.49 158.73,22.86 158.73,22.86 C158.41,22.03 158.15,21.36 157.95,20.87 C157.74,20.37 157.49,19.9 157.19,19.47 C156.89,19.03 156.5,18.68 156.01,18.4 C155.53,18.13 154.92,17.99 154.19,17.99 C153.48,17.99 152.88,18.13 152.39,18.4 C151.91,18.68 151.51,19.04 151.21,19.49 C150.92,19.93 150.63,20.49 150.37,21.16 C150.11,21.84 149.88,22.41 149.69,22.9 C149.69,22.9 143.1,39.63 143.1,39.63 C142.83,40.3 142.64,40.82 142.52,41.19 C142.4,41.57 142.35,41.93 142.35,42.28 C142.35,42.89 142.6,43.44 143.1,43.92 C143.61,44.4 144.19,44.64 144.84,44.64 C145.62,44.64 146.17,44.41 146.51,43.96 C146.85,43.51 147.26,42.64 147.74,41.35 C147.74,41.35 148.97,38.05 148.97,38.05 C148.97,38.05 159.45,38.05 159.45,38.05 C159.45,38.05 160.68,41.28 160.68,41.28 C160.84,41.68 161.04,42.14 161.27,42.66z M154.16,23.49 C154.16,23.49 158.04,34.13 158.04,34.13 C158.04,34.13 150.34,34.13 150.34,34.13 C150.34,34.13 154.16,23.49 154.16,23.49z" style="display: inherit;"></path></g></g></svg>