<svg id="Layer_1" data-name="Layer 1" xmlns="http://www.w3.org/2000/svg" viewBox="0 0 41 53.9"><defs><style>.cls-1{fill:#fff;}</style></defs><path class="cls-1" d="M20.39,53.9l-1-.51A42.36,42.36,0,0,1,8.56,45.64a30.21,30.21,0,0,1-6.38-9,24.37,24.37,0,0,1-2-7.3A25.52,25.52,0,0,1,0,26.44V0H41V25.78A26.05,26.05,0,0,1,35.92,41.5a36.75,36.75,0,0,1-7.51,7.59,41.49,41.49,0,0,1-7.78,4.74l-.07.07ZM2.48,35.65l.32-.13,4-1.62a3.57,3.57,0,0,1,2.9,0l3.17,1.4a3.4,3.4,0,0,0,2.86,0l3.1-1.38a3.4,3.4,0,0,1,2.89,0c1,.46,2.08.94,3.13,1.39a3.34,3.34,0,0,0,2.83,0c1-.43,2-.87,2.93-1.33a3.57,3.57,0,0,1,3,0L38,35.75l.29.11a.09.09,0,0,1,.06-.08.77.77,0,0,0,.07-.16,23.25,23.25,0,0,0,1.87-9V.69C39.91.62.87.63.59.69V26.11A19.55,19.55,0,0,0,.7,28.65,23.11,23.11,0,0,0,2.36,35.4Zm2.1,4a1.51,1.51,0,0,0,.11.22A30,30,0,0,0,7.84,44a.45.45,0,0,0,.38.16,3.66,3.66,0,0,1,1.56.35c1,.46,2,.91,3.07,1.35a3.4,3.4,0,0,0,2.86,0c1.05-.46,2.08-.94,3.13-1.39a3.41,3.41,0,0,1,2.83,0l3.13,1.4a3.49,3.49,0,0,0,2.9,0c1-.43,1.92-.86,2.87-1.31a3.63,3.63,0,0,1,2-.33.37.37,0,0,0,.35-.14A31.21,31.21,0,0,0,36.17,40a1,1,0,0,0,.09-.21L36,39.64l-2.77-.78a3.35,3.35,0,0,0-2.33.18c-1,.47-2,1-3.09,1.4a3.34,3.34,0,0,1-2.83,0L21.81,39a3.57,3.57,0,0,0-3,0l-3.09,1.38a3.49,3.49,0,0,1-2.9,0c-1.1-.47-2.19-1-3.28-1.44a2.76,2.76,0,0,0-1.81-.23c-1,.26-2,.59-3,.89ZM24.71,50.83l-.31-.15-2.91-1.31a2.82,2.82,0,0,0-2.31,0c-1,.41-1.88.84-2.82,1.26l-.28.15.13.1a38.2,38.2,0,0,0,4,2.24.43.43,0,0,0,.44,0A38.82,38.82,0,0,0,24.56,51Z" transform="translate(0.01)"/><path class="cls-1" d="M37.88,3.2a13.21,13.21,0,0,1-2,5.09,4.29,4.29,0,0,0,1-.62c.29-.24.58-.49.89-.71a18.5,18.5,0,0,1-3.83,5.7,5.5,5.5,0,0,0,1.26-.36c.4-.16.8-.34,1.26-.54a3.62,3.62,0,0,1-.22.32A15.51,15.51,0,0,1,33.16,15c-.51.37-1,.71-1.56,1.06a1.71,1.71,0,0,0-.26.21,20.33,20.33,0,0,0,3.15-.93,13,13,0,0,1-3.89,4A8.11,8.11,0,0,0,32.84,19a19,19,0,0,1-3.54,3.22,5.24,5.24,0,0,0,1.31-.11c.42-.07.83-.17,1.31-.27a4.42,4.42,0,0,1-.53.53c-.64.5-1.3,1-2,1.47-.4.28-.82.54-1.23.81.35.19.69.19,2,0a6.12,6.12,0,0,1-4.22,2.5c.07,0,.11.1.16.1a4.51,4.51,0,0,0,.9,0,2.82,2.82,0,0,1,2.16.51l1.45,1c.56.39,1.11.79,1.7,1.15a2.6,2.6,0,0,0,1.74.36,3.67,3.67,0,0,0,1.43-.55l.25-.18a4.58,4.58,0,0,1-2,2.93.33.33,0,0,0,.38.11c.34-.08.69-.17,1-.27l.41-.16a1.37,1.37,0,0,1-.15.21l-1.06,1a.35.35,0,0,1-.45,0A3.56,3.56,0,0,0,32,33a3.29,3.29,0,0,0-1.23.28l-3,1.38a3.5,3.5,0,0,1-3,0l-3.06-1.3a3.43,3.43,0,0,0-2.87,0l-3.09,1.38a3.56,3.56,0,0,1-2.93,0c-.27-.11-.53-.25-.8-.35a2.08,2.08,0,0,1-.9-.67,11.12,11.12,0,0,1-2.37-4.31,8.07,8.07,0,0,1-.2-3.49,6.59,6.59,0,0,1,2-3.65,14.21,14.21,0,0,1,2.24-1.7c.71-.43,1.42-.85,2.12-1.29a10,10,0,0,0,1.93-1.51,5.53,5.53,0,0,0,1.1-1.52,3.68,3.68,0,0,0,.28-.85,1.68,1.68,0,0,0-1.26-2h0a1.94,1.94,0,0,0-.68,0,2.93,2.93,0,0,0-1.13.49,4.87,4.87,0,0,0-1.57,1.83,6.08,6.08,0,0,1-1.21,1.72A2.74,2.74,0,0,1,11,18.2a1.22,1.22,0,0,1-.27,0,3,3,0,0,0,.75-1.12,3.5,3.5,0,0,0,.06-1.29,1.49,1.49,0,0,0,.72-1.19,5.47,5.47,0,0,0-.7.16.91.91,0,0,0-.57.62.9.9,0,0,1-.9.63,2.51,2.51,0,0,1-1.42-.31.35.35,0,0,1-.22-.37,2,2,0,0,1,.38-1.2,3.17,3.17,0,0,1,1.71-1.25c.5-.15,1-.31,1.5-.49a8,8,0,0,0,1.14-.56,12.46,12.46,0,0,1,3.2-1.44,4.79,4.79,0,0,1,3.61.43,3.81,3.81,0,0,1,1.73,2,.69.69,0,0,1-.11.13,7.57,7.57,0,0,0-2.15,4.27c-.15.85-.19,1.71-.26,2.57a.58.58,0,0,1-.23.44c-.58.45-1.15.9-1.7,1.38a3.7,3.7,0,0,0-1.15,1.78,2.28,2.28,0,0,0,0,1.32,1,1,0,0,0,1.16.81h.11a2,2,0,0,0,1.05-.62,4.06,4.06,0,0,0,.78-1.5,10.25,10.25,0,0,0,.32-2.2c0-.74.07-1.49.13-2.24a12.17,12.17,0,0,1,.8-3.52,4.85,4.85,0,0,1,1.31-1.88,14.12,14.12,0,0,1,4.65-2.82c1.5-.55,3-1.13,4.48-1.72a14,14,0,0,0,4.66-3.16,20.65,20.65,0,0,0,2.09-2.4A2.56,2.56,0,0,1,37.88,3.2Zm-17.46,22a1.81,1.81,0,0,0,1-.59,3.44,3.44,0,0,0,.77-1.46,10.2,10.2,0,0,0,.26-2.4c0-1,0-2,.08-3a3.85,3.85,0,0,1,1.75-3.13,8.91,8.91,0,0,1,1-.57l.24-.14a2.2,2.2,0,0,0-.67.17,3.85,3.85,0,0,0-2.35,2.25,9.85,9.85,0,0,0-.4,1.41,15.35,15.35,0,0,0-.16,2.71,14.58,14.58,0,0,1-.17,2.47,3.17,3.17,0,0,1-1.21,2.17A.15.15,0,0,0,20.42,25.2Zm6.19-11.7a1.83,1.83,0,0,0,1.77.15,2.74,2.74,0,0,0,1.7-1.72,17.68,17.68,0,0,1-1.58,1.15,4.1,4.1,0,0,1-1.89.37Zm3.14.53a10.3,10.3,0,0,1-1.64,1.3,5.1,5.1,0,0,1-2,.43.38.38,0,0,0,.13.09A3.07,3.07,0,0,0,29,15.32,1.77,1.77,0,0,0,29.75,14Zm-4.52,4.1a2.22,2.22,0,0,0,2.09.22A1.86,1.86,0,0,0,28.56,17a4.3,4.3,0,0,1-1.47.94,7.85,7.85,0,0,1-1.81.13Zm-1,2.35A1.25,1.25,0,0,0,25,21a2.49,2.49,0,0,0,2.47-.72.66.66,0,0,0,.12-.17,4.47,4.47,0,0,1-3.33.29ZM26.87,22l-.46.31a2.23,2.23,0,0,1-2.52,0l-.21-.12a1.15,1.15,0,0,0,.48.68,1.93,1.93,0,0,0,2.66-.54A2.21,2.21,0,0,0,27,22Zm-4.78,3.41c1.07.73.94,1.74.77,2.78a1.57,1.57,0,0,0,.51-1.85,1.23,1.23,0,0,0-1.23-1Zm3,1.37a1.72,1.72,0,0,0-.15-2.09,1.3,1.3,0,0,0-1.32-.58c1.18.47,1.38,1.5,1.47,2.62Zm-.64,3.5.08.06a1.05,1.05,0,0,1,.7.42l.31.3a1.2,1.2,0,0,0,.67.29A.7.7,0,0,0,27,30.9a.23.23,0,0,0,0-.2h-.18a.72.72,0,0,1-1,0c-.15-.12-.29-.27-.45-.39a.65.65,0,0,0-.87-.12Zm-11.2,1.29a1.92,1.92,0,0,1,.57,1.11.91.91,0,0,0,1,.66,1.59,1.59,0,0,1-.64-1.15,1.26,1.26,0,0,0-.24-.44.62.62,0,0,0-.69-.23Zm18.81.55H32a.16.16,0,0,0-.08.06,1.28,1.28,0,0,1-1,.44,3.81,3.81,0,0,1-.59-.08c-.11,0-.23,0-.25.09a.39.39,0,0,0,.12.25l.14.08a1.69,1.69,0,0,0,1.25-.06.93.93,0,0,0,.48-.82Zm-20.13-1.4a5.68,5.68,0,0,1,.22.7,1.62,1.62,0,0,1,0,.44.83.83,0,0,0,.73.77,1.74,1.74,0,0,1-.32-1.11.88.88,0,0,0-.07-.32.68.68,0,0,0-.57-.52ZM24.2,29.17c.2.09.2.1.39,0a.81.81,0,0,1,.81.19l.44.46a1.94,1.94,0,0,0,.29.21,1.25,1.25,0,0,0-.72-1,1,1,0,0,0-1.21.16Zm-6-3.11.73.33a.54.54,0,0,0,.73-.11L19,25.92l-.22-.08a.46.46,0,0,0-.53.17Zm.5.87-.8-.36a.79.79,0,0,0-.26-.08c-.17,0-.34,0-.41.19.25.11.48.19.69.3a.65.65,0,0,0,.83-.1Z" transform="translate(0.01)"/><path class="cls-1" d="M13.12,17.33a4.41,4.41,0,0,0,.61,2l-.31.18A16.57,16.57,0,0,0,10,21.76,6.59,6.59,0,0,0,8.23,24.2l-.08.13H8a1.94,1.94,0,0,0-1.12,0c-.51.14-1,.28-1.53.39A2.79,2.79,0,0,1,2.09,22.5v-.37a4.65,4.65,0,0,1,.64-2.7A11.34,11.34,0,0,1,4,17.52c.48-.53,1-1,1.48-1.56A8,8,0,0,0,7.34,13.2,5.25,5.25,0,0,0,6.56,8a.84.84,0,0,1-.16-.33c.17.09.35.17.52.28A7.59,7.59,0,0,1,8.56,9.56c.09.1.2.19.29.28.2-.09.16-.23.14-.34-.08-.38-.18-.76-.27-1.14A1.65,1.65,0,0,0,8.61,8L9,8.2a5.58,5.58,0,0,1,2,2.38c.06.13.13.24.21.38a.43.43,0,0,0,.16-.42,7.3,7.3,0,0,0-.1-.94V9.23a4.08,4.08,0,0,1,1.42,2.44,2.91,2.91,0,0,1-.51.22l-1.6.55a3.77,3.77,0,0,0-1.79,1.2,3.08,3.08,0,0,0-.7,1.74.57.57,0,0,1-.18.38c-.1.11-.19.22-.28.34a.87.87,0,0,0-.14.85,1,1,0,0,1-.08.87,9.86,9.86,0,0,1-.69,1c-.29.34-.62.64-.93,1a1.17,1.17,0,0,0-.37.7.78.78,0,0,0,.24.79.86.86,0,0,0,.92.14,2.24,2.24,0,0,0,.53-.33,7.53,7.53,0,0,0,.73-.65,6.13,6.13,0,0,1,1.48-1.1l.5-.27A2.41,2.41,0,0,1,11,18.73a2.65,2.65,0,0,0,2-1.07Z" transform="translate(0.01)"/><path class="cls-1" d="M7.92,17.31a5.78,5.78,0,0,0,.57.12,1.91,1.91,0,0,0,1.26-.23c.39-.23.77-.51,1.14-.76.11-.08.21-.17.35-.29a1.92,1.92,0,0,1-.31,1.36,2.89,2.89,0,0,1-1.24,1A7.93,7.93,0,0,0,7.12,20.3a7.68,7.68,0,0,1-.59.55.48.48,0,0,1-.5.08.45.45,0,0,1-.24-.58h0a2.55,2.55,0,0,1,.42-.61c.26-.29.55-.56.82-.84l.14-.14A2.26,2.26,0,0,0,7.92,17.31Z" transform="translate(0.01)"/></svg>