<svg xmlns="http://www.w3.org/2000/svg" viewBox="0 0 193.56 199.48"  fill="#fff" xmlns:v="https://vecta.io/nano"><path d="M98.55 123.31a40.37 40.37 0 0 0 10.75-1.66 55.84 55.84 0 0 0 26.49-16.53 56.51 56.51 0 0 1 5.84-5.31 2.84 2.84 0 0 1 3.7-.16c2.89 1.79 5.89 3.41 8.88 5a2.31 2.31 0 0 1 1.31 2.56l-.74 8.3 8.63 1c-1.72 1.6-3.27 3.21-5.37 3.91a5.06 5.06 0 0 1-3.1-.14c-3.53-1.27-7-2.7-10.46-4.14a1.67 1.67 0 0 0-2.08.36c-8.06 7.39-17.1 13.19-27.61 16.42-17.54 5.39-34.16 2.93-49.92-6.19a78 78 0 0 1-13.88-10.31 1.38 1.38 0 0 0-1.72-.34l-10.53 4.23a4.29 4.29 0 0 1-4.43-.41c-1.4-1-2.74-2.09-4.11-3.15l.11-.23 8.42-1-.71-8.29a2.29 2.29 0 0 1 1.32-2.54c3.08-1.67 6.15-3.37 9.16-5.16a2.43 2.43 0 0 1 3.07.07 57.46 57.46 0 0 1 6.13 5.46 56.17 56.17 0 0 0 26.56 16.6 42.8 42.8 0 0 0 11.13 1.69 4.2 4.2 0 0 0-.43-.74c-1.76-2-3.44-4-5.3-5.87a20.28 20.28 0 0 0-7.67-4.78l-12.25-4.38c-5-1.9-9.85-4.31-13.64-8.21-8.46-8.7-10.94-19-7.51-30.6a93 93 0 0 1 2.57-7.48 36.5 36.5 0 0 0 1.81-19 66.1 66.1 0 0 0-1.24-6.54 22.68 22.68 0 0 0-5-10.23l.86-1L63.18 7.86a1.63 1.63 0 0 1 1.62-.55c11.32 1.31 22-.25 31.53-7.07a.83.83 0 0 1 1.17 0c9 6.47 19.22 8.19 30 7.2a4.38 4.38 0 0 1 4.22 1.62l14.63 15.69c.35.37.82.66.28 1.28-3.25 3.69-4.49 8.25-5.38 12.91a41.48 41.48 0 0 0-.78 13.87 60.05 60.05 0 0 0 2.41 9.25c1.25 3.93 2.91 7.75 3.39 11.89 1.35 11.81-2.79 21.31-12.33 28.4-4 3-8.71 4.85-13.46 6.46l-7.19 2.45a25 25 0 0 0-10.09 6.44c-1.65 1.71-3.21 3.52-4.81 5.28zm54.44-18.16l-8.39-4.75a1.62 1.62 0 0 0-2.09 0 51.54 51.54 0 0 0-5.64 5 55.08 55.08 0 0 1-14.31 11.66c-11.86 6.88-24.49 9.18-37.87 5.65a55.49 55.49 0 0 1-27.36-16.65 80.78 80.78 0 0 0-6-5.55 1.84 1.84 0 0 0-2.44-.11c-2.07 1.27-4.22 2.41-6.34 3.6l-1.6.91c2.08 2 4.28 3.83 6.15 5.94A74.73 74.73 0 0 0 67.48 127c12.67 7 26.18 9.5 40.52 6.7 14.7-2.92 26.81-10.5 37.07-21.21 2.42-2.58 4.71-5.29 7.92-7.34zm-7.35-79.6l-1.15-1.24-13.35-14.32a4 4 0 0 0-3.79-1.43c-10.68.87-20.84-.74-29.87-7a.89.89 0 0 0-1.18 0c-9.44 6.5-20 8-31.11 6.89a1.79 1.79 0 0 0-1.7.61q-7.34 7.91-14.72 15.76c-.23.25-.44.51-.55.63 1 1.74 2 3.31 2.8 5a31 31 0 0 1 1.8 5.31 65 65 0 0 1 1.17 6.64 37.33 37.33 0 0 1-1.86 19.16c-1 2.6-1.88 5.29-2.71 8a28.47 28.47 0 0 0 10.87 32 54 54 0 0 0 9.08 4.81c4.15 1.74 8.46 3.1 12.71 4.61a23.82 23.82 0 0 1 9.39 6.2c1.64 1.74 3.12 3.62 4.67 5.45.22.25.42.52.64.79 1.59-1.83 3.08-3.65 4.69-5.37a26.39 26.39 0 0 1 10.41-7.24l6.69-2.32c5.45-1.82 10.84-3.8 15.42-7.39 8.73-6.85 12.49-15.86 11.19-26.91a49.77 49.77 0 0 0-3.41-11.77 36.62 36.62 0 0 1-2.45-17.14c.74-7 1.76-13.86 6.29-19.73zm-1.35 89.51l9.36 3.72.9-12.86c-2.74.42-7.67 5.86-10.3 9.14zm-94.92-.08c-3.22-3.36-5.83-7.1-10.35-9.3l.88 13a1.09 1.09 0 0 0 .31-.08zm111.62 2.64l-.12-.3-6-.78a9.69 9.69 0 0 0 0 1.32 2 2 0 0 0 2.79 1.76 28.28 28.28 0 0 0 3.29-2zm-128.49-.29l2.49 1.81a2.54 2.54 0 0 0 3.1.13c.91-.64.65-1.76.69-2.78zm7.33 55.9l9.68.05c4.33.38 6.88 3.84 6.11 7.79a5.31 5.31 0 0 1-2.6 3.6l-1.08.66 1.68.59c2.53 1.07 4.21 2.84 4.41 5.67a6.28 6.28 0 0 1-3.67 6.35 7.62 7.62 0 0 1-2.93 1c-3.83.21-7.68.26-11.6.37zm3.83 22.47c2.32 0 4.51.12 6.68 0a4 4 0 0 0 3.75-3.79 3.91 3.91 0 0 0-3.52-4c-2.25-.3-4.55-.28-6.91-.41zm0-11.27a49.53 49.53 0 0 0 5.57-.68 3.56 3.56 0 0 0 2.54-4 3.23 3.23 0 0 0-3-3.21c-1.67-.23-3.37-.21-5.13-.3zm-19.8-5.7l-1.35-.67c-3.4-1.62-6.93-2.52-10.7-1.71a10 10 0 0 0 1.31 19.81 16.52 16.52 0 0 0 6.76-.87c.27-.09.64-.41.65-.63v-5h-5v-3.27h8.79c0 .26.07.53.09.79v9.38a1.32 1.32 0 0 1-.53 1c-4.73 1.9-9.58 2.62-14.56 1.15a12.75 12.75 0 0 1-9.33-12.65 13.39 13.39 0 0 1 10-12.83c4.65-1.25 9.08-.37 13.39 1.49a.85.85 0 0 1 .44.6c.06 1.1.04 2.16.04 3.41zm49.24 8.03c2.75 2.47 6.24 7.11 9.32 12.43h-4.18c-.25 0-.54-.4-.72-.67l-3.79-5.72a38.38 38.38 0 0 0-2.61-3.23c-1.39-1.59-3.2-1.93-5.33-1.64v11.24h-3.8v-26.25a89.79 89.79 0 0 1 9.28.42 6.87 6.87 0 0 1 6.23 7.46 7.52 7.52 0 0 1-.23 1.24 6.22 6.22 0 0 1-3.07 4.13zm-7.24-10.65v8.46c1.58-.12 3.08-.13 4.53-.36a3.75 3.75 0 0 0 3.1-3.77 3.63 3.63 0 0 0-2.93-3.87c-1.51-.28-3.07-.31-4.7-.46zm118.21 10.67c4.17 3.32 6 8.3 9.49 12.39h-4.46c-.21 0-.45-.4-.61-.65l-3.79-5.73a38.73 38.73 0 0 0-2.77-3.37c-1.36-1.51-3.14-1.74-5.19-1.5v11.25h-3.75v-26c.08-.06.14-.13.19-.13 3 0 5.92-.13 8.83.21a6.88 6.88 0 0 1 6.48 7.27 6.74 6.74 0 0 1-.15 1.11 6.2 6.2 0 0 1-3.09 4.47zm-7.27-2.19c1.68-.15 3.27-.16 4.81-.45a3.65 3.65 0 0 0 2.84-3.65 3.51 3.51 0 0 0-2.39-3.73 44.31 44.31 0 0 0-5.26-.71zm-68.16 14.61h-3.33a1.3 1.3 0 0 1-.84-.71q-1.5-3.09-2.88-6.23a1.18 1.18 0 0 0-1.25-.81h-9.69a1 1 0 0 0-1.16.76l-2.66 6.22a1.09 1.09 0 0 1-1.23.81c-1-.05-1.92 0-3 0l.37-1q5.31-12.15 10.6-24.32c.29-.67.58-1.13 1.42-1s1.67-.21 2.2 1l11 24.26a5.56 5.56 0 0 1 .45 1.02zm-13.31-20.54l-4 9.37h8.22zm74.45 20.55h-3.25a1.44 1.44 0 0 1-.92-.75q-1.5-3.09-2.88-6.24a1.08 1.08 0 0 0-1.18-.75h-9.69a1.14 1.14 0 0 0-1.24.81l-2.65 6.23a1 1 0 0 1-1.16.76c-1-.05-1.93 0-3 0a9.06 9.06 0 0 1 .29-.88q5.35-12.32 10.72-24.63c.25-.57.54-1 1.22-.82s1.65-.47 2.16.66q5.68 12.57 11.43 25.11a3.29 3.29 0 0 1 .15.5zm-13.28-20.55l-3.69 8.73a3.3 3.3 0 0 0-.15.62h8l-.21-.58-3.95-8.77zm-9.59-5.6v3.26h-9.21v22.81h-3.86v-22.75h-9.13v-3.32z"/><path d="M127.4 199.15h-15.7v-26h3.69v22.63h12zm-97.41.06v-26.1h3.75c0 .36.06.73.06 1.1v23.85c0 1-.32 1.26-1.24 1.18s-1.57-.03-2.57-.03zm8.6-50.93v19.25a1.5 1.5 0 0 1-1.85-.56l-13.48-15.18-.94-1v16.82h-1.49v-19.27a1.54 1.54 0 0 1 1.88.61l14.35 16.2v-16.87zm130.32 19.62c-7.23 0-12.12-6-10.41-12.55a10.27 10.27 0 0 1 8.94-7.31 10.82 10.82 0 0 1 7.67 2 9.7 9.7 0 0 1 3.72 10.6 10.31 10.31 0 0 1-8.72 7.19c-.48.04-.97.05-1.2.07zm8.58-9.91a8.49 8.49 0 0 0-8.39-8.6h-.4a8.57 8.57 0 1 0 8.79 8.6zm-95.09.36v9.23h-1.48v-19.36c2.76.14 5.54-.38 8.23.48a4.41 4.41 0 0 1 3.32 3.88 4.54 4.54 0 0 1-2.5 4.84l-.55.28-.26.14 6.67 9.64a1.86 1.86 0 0 1-2.47-.84l-3.93-6a4.71 4.71 0 0 0-4.57-2.3c-.76.05-1.52.01-2.46.01zm0-9v7.76a50.2 50.2 0 0 0 5.2-.3 3.4 3.4 0 0 0 3.18-3.62 3.46 3.46 0 0 0-3.28-3.54c-1.58-.17-3.25-.17-5.05-.25zm-82.41-1.07h1.58v10.46a13.76 13.76 0 0 0 .2 2.48 6.38 6.38 0 0 0 6.9 5.32 6.24 6.24 0 0 0 6.25-5.93c.23-3.63.13-7.28.17-10.92v-1.37h1.48V159a13.4 13.4 0 0 1-.28 2.68c-.88 4.08-4.11 6.45-8.47 6.27a7.73 7.73 0 0 1-7.73-7 12.68 12.68 0 0 1-.1-1.74zm68.23 18.12h9.38l.07 1.17h-11v-19.28h10.7l.08 1.14h-9.24v7.77h8.94l.06 1.29h-9zm28.77-1.73a14.78 14.78 0 0 0 2.67 1.33 8.72 8.72 0 0 0 3.33.32 3.65 3.65 0 0 0 3-3.09 3.53 3.53 0 0 0-2-3.8c-1.34-.7-2.79-1.21-4.18-1.83-2.61-1.15-3.64-2.89-3.2-5.38a5.28 5.28 0 0 1 4.88-4.16 20.25 20.25 0 0 1 4.17.59c1.11.21 1.43 1 1.06 2l-2.08-.88a5.29 5.29 0 0 0-4.06-.1 3.46 3.46 0 0 0-2.35 3 3.15 3.15 0 0 0 1.93 3.27l4.11 1.76c2.69 1.18 3.8 3.13 3.32 5.76a5.57 5.57 0 0 1-5.21 4.32 7.8 7.8 0 0 1-5-1.38c-.43-.3-.52-1.12-.76-1.69zm-41.32-.07l3.87-9.12q1.32-3.12 2.65-6.22c.49-1.17.49-1.17 2-1l-8.3 19.56h-.4l-8.33-19.54a1.36 1.36 0 0 1 1.85.49 1.38 1.38 0 0 1 .15.4l6 14.16a7.64 7.64 0 0 0 .51 1.27zm128.82 2.98h-1.5v-19.27h10.11v1.17h-8.53v7.38h7.67v1.25h-7.73zm-61.98-18.1h-7.36v-1.19h16.28l.07 1.15h-7.42v18.14h-1.57zm9.28-1.14a2.22 2.22 0 0 1 2.59.87l5 5.85.77.82 5.67-6.6c.95-1.11.95-1.11 2.65-1l-.71.9-6.28 7.37a2.71 2.71 0 0 0-.57 1.57v9.43h-1.54v-9.29a3.08 3.08 0 0 0-.65-1.75l-6.21-7.29zm-20.55-.06h1.39v19.3h-1.39zm-67.96-.01h1.38v19.3h-1.38zm97.79-35.93l-.86.73-.58-.51a3.85 3.85 0 0 0-.84-.77.62.62 0 0 0-.86.89 9.68 9.68 0 0 0 1.28 1.2l-.64.73-2.19-2.29 2.12-1.79c.68-.66 1.26-1.55 1.58-1.47a11.39 11.39 0 0 1 2.52 1.37c-.44.93-.81 1-1.31.42a2.82 2.82 0 0 0-.75-.71c-.26-.12-.76-.16-.87 0a1 1 0 0 0 0 .9 11.47 11.47 0 0 0 1.4 1.3zm-51.62 17.53c-.16 1-.69 1.28-2 1a2.44 2.44 0 0 1-2.25-2.62v-.23c.3-1.43 1.87-2.17 3.6-1.69 1.12.31 1.25.5 1 1.46-1-.45-2-1.11-3-.17a1.55 1.55 0 0 0-.28 1.39c.59 1.29 1.83.96 2.93.86z"/><path d="M114.27 125.42l1.51.11c.72 0 1.42.38 1.37 1.12a2.26 2.26 0 0 1-.93 1.52c-1 .69-1.93.45-2.24-.45.67-.22 1.62.29 2.15-.89l-1.54-.17c-.78-.06-1.47-.27-1.58-1.18a1.41 1.41 0 0 1 1.24-1.55c.63-.17 1.46-.77 1.87.4l-2 .64zM52.99 110.9a13.93 13.93 0 0 0 1 1.39.57.57 0 0 0 .55.07c.11-.07.15-.37.11-.54-.12-.39-.45-.76-.45-1.15a2.16 2.16 0 0 1 .39-1.46 1.7 1.7 0 0 1 1.49-.09 3.56 3.56 0 0 1 1.22 1.22c.15.23 0 .65 0 1h-.31l-1.35-1.5-.37.22.42 1.25c.3.73.44 1.44-.31 2a1.55 1.55 0 0 1-2.07-.33c-.81-.85-.92-1.45-.32-2.08zm58.79 18.66l-1.84.56a1.53 1.53 0 0 1-1.8-1.19 1.51 1.51 0 0 1 .95-1.9h.05a6.11 6.11 0 0 1 .85-.18 4 4 0 0 0-.1-.72c0-.23-.07-.4-.13-.69l.93-.25zm-1-.8l-1-1.2c-.23.29-.69.64-.63.85a2.35 2.35 0 0 0 .82 1l.82-.65zm-38.79-3.01l-2.38-1.2a.77.77 0 0 1-.11-.73 1.6 1.6 0 0 1 .9-.53 6.27 6.27 0 0 1 1.37.09l.1-.37-1.47-.6c.48-.8 1.11-.37 1.65-.11a1.06 1.06 0 0 1 .67 1.48l-.73 1.97zm34.31 2.61l-1.56.38c-.13-.81.56-.91 1.09-1 .71-.18 1.39-.17 1.63.77.15.57.38 1.12.64 1.86a3.61 3.61 0 0 1-.71.35 3.55 3.55 0 0 1-1.25.19 4.89 4.89 0 0 1-1.19-.33 4.06 4.06 0 0 1 .43-1.13 4 4 0 0 1 1-.67zm-12.72.79h-1.59c.24-1 1-.79 1.54-.78.75 0 1.26.33 1.22 1.21 0 .62.06 1.24.13 1.85a2.54 2.54 0 0 1-.71.17 4 4 0 0 1-1.38-.09 4.53 4.53 0 0 1-1-.68 3.19 3.19 0 0 1 .68-.91 5.43 5.43 0 0 1 1.22-.45zm-16.04-1.76a1.86 1.86 0 0 1-2.28-.14 1.47 1.47 0 0 1-.5-2 .25.25 0 0 1 0-.07 1.63 1.63 0 0 1 2.19-.68h0c.82.39 1 1.08.67 2.16l-1.92-.71c-.11.95-.07.99 1.84 1.44zm52.33-7.03c.09 1.09-.64 1.44-1.4 1.71a1.53 1.53 0 0 1-1.94-.94 1.5 1.5 0 0 1 .66-2c.8-.52 1.5-.35 2.28.59l-1.82 1.3c1.1.71 1.61-.1 2.22-.66zm-67.41-1.88l-1.81-1.22c-.32 1.26.6 1.38 1.28 1.8-.69.42-1.24 0-1.74-.42a1.52 1.52 0 0 1-.3-2.13l.15-.17a1.63 1.63 0 0 1 2.25-.17c.7.55.82 1.31.17 2.31zm.47 2l-.83-.53 1.73-2.47a7.6 7.6 0 0 1 1.78 1 1.68 1.68 0 0 1 .3 1.42 8.18 8.18 0 0 1-1.16 1.75l-.83-.53a13.16 13.16 0 0 0 .94-1.4 2.73 2.73 0 0 0 .09-.9c-.34.07-.78 0-1 .24a10.21 10.21 0 0 0-1.02 1.42zm53.93 4.15l.9-.38a15.92 15.92 0 0 0 .78 1.61c.13.21.46.29.7.43.12-.29.38-.62.32-.86a10.87 10.87 0 0 0-.67-1.66l.89-.42 1.24 2.75a9.12 9.12 0 0 1-2 1 1.56 1.56 0 0 1-1.26-.55 8.62 8.62 0 0 1-.9-1.92zm18.22-11.15l.75-.64 2 2.28a9 9 0 0 1-1.57 1.44 1.73 1.73 0 0 1-1.39-.1c-.4-.2-.65-.71-1-1-.5-.49-.39-.82.32-1.13a12.14 12.14 0 0 0 1.14 1.24c.2.17.57.17.86.25a3 3 0 0 0 0-1 9.52 9.52 0 0 0-1.11-1.34zm-40.23 15.16c1.42-.49 1.14.84 1.66 1.29.61-.32.29-1.83 1.72-1.26l-1.28 2.7c-.25.48-.62.47-.85 0l-1.25-2.73zm-37.16-12.99c-.69.78-1.1.12-1.47-.21a1.48 1.48 0 0 1-.32-2.07l.06-.07a1.6 1.6 0 0 1 2.23-.38h.07c.4.3 1.12.58.55 1.4-.64-.43-1.25-1.37-2-.38s.18 1.25.88 1.71zm9.2 4l1.32-.39a7.84 7.84 0 0 0 .23 1.07 3.51 3.51 0 0 0 .39.61h-.79a1.11 1.11 0 0 1-.27-.12c-1.07 1-1.09 1.25-.2 2.31-.38-.08-.92 0-1.09-.25a2 2 0 0 1-.43-1.39 7 7 0 0 1 .84-1.84zm66.65-4.02l-1.44.8c1 .34 2.26-.59 2.44.84 0 .4-.55.94-.94 1.32-.17.16-.57.06-.87.08v-.29l1.21-.8c-.93-.38-2.26.68-2.39-.83 0-.4.63-.9 1-1.27.13-.11.44.06.99.15zm-52.33 10.68l1.4-.83-.1.93 1 .44v.33l-1.18.11c-.68 1.27-.65 1.4.46 1.86v.3a3.57 3.57 0 0 1-1.13.07 1 1 0 0 1-.87-1.11.79.79 0 0 1 0-.22 10.94 10.94 0 0 0 .42-1.88zm45.55-3.97c.5.82-.22 1-.61 1.23a1.61 1.61 0 0 1-2.24-.41v-.06a1.59 1.59 0 0 1 .38-2.14c.64-.53 1-.55 1.56-.07-.53.43-1.63.62-1 1.63s1.26.19 1.91-.18zm3.05-4.2c1 .24 2.09-.51 2.41.66.1.36-.34 1-.68 1.31s-.72.19-1.09.27l-.07-.31 1.23-.85c-.93-.3-2 .56-2.33-.62-.1-.33.26-.89.57-1.19s.73-.25 1.1-.37l.13.35zm-27.49 10.79h-1.33c.62.73 2.18.66 1.57 2-.17.36-1 .49-1.51.6-.22 0-.51-.25-.77-.4l.13-.23 1.46-.12c-.61-.72-2-.5-1.66-1.72.09-.32.7-.62 1.11-.72s.77.17 1.16.27zm21.61-5.02c.24 1-.49 1.16-1 1.36a1.55 1.55 0 0 1-2.06-.75v-.07a1.52 1.52 0 0 1 .71-2c.43-.23 1-.81 1.45.1-.63.37-1.7.54-1.1 1.58s1.23.24 2-.22zm-45.94 3.65l1.32.56c-.16-1-1.68-1.37-.73-2.31.29-.28 1.08-.13 1.61 0 .22 0 .38.43.57.66l-.21.19-1.31-.6c.37.95 1.67 1.44.77 2.38-.27.27-1 .19-1.51.1-.3-.05-.53-.44-.79-.68zm12.62-.87l.84.07c0 .12.11.18.1.24l-.43 3.6c0 .25-.35.46-.54.68-.15-.25-.44-.51-.42-.74l.45-3.85zm-30.14-11.78l-1.95 2.31-.8-.59 2-2.38zm8.16 9.15l-.84-.54 1.52-2.59.91.41zm30.06 7.81l-.16-2.65c-.07-.75.25-.87 1-.66a23.3 23.3 0 0 1 .08 2.51c-.04.22-.46.41-.92.8zM96.99 4.95c5.53 3.92 12.1 5.36 18.87 6.19a54 54 0 0 0 11.85.24 1.46 1.46 0 0 1 1.08.37l13.09 14c-.35.64-.72 1.26-1 1.9-2.45 4.84-3.51 10.05-4.19 15.38a42.29 42.29 0 0 0 2.65 21 47.94 47.94 0 0 1 2.94 10.17c1.5 10.43-2.21 18.87-10.65 25.16-3.75 2.79-8.07 4.45-12.45 6-1.74.59-3.47 1.21-5.24 1.72-6.67 1.94-11.93 5.94-16.37 11.14l-.53.64a1.44 1.44 0 0 1-.25.18c-.21-.23-.45-.46-.66-.71a35.21 35.21 0 0 0-16.91-11.44 98.76 98.76 0 0 1-12.45-4.69 26.08 26.08 0 0 1-15.25-18.38 27.23 27.23 0 0 1 1-15.17c.72-2.17 1.43-4.35 2.27-6.48 2.58-6.56 2.87-13.33 1.9-20.19a55.8 55.8 0 0 0-1.6-8c-.82-2.79-2.09-5.5-3.09-8.28l-.34.05.75-.84L64.28 12.2a2.32 2.32 0 0 1 2.15-.81 56.27 56.27 0 0 0 23.82-3.18c2.25-.84 4.35-2.1 6.74-3.26zm-.14 1.42a61.9 61.9 0 0 1-6.11 2.88 59.1 59.1 0 0 1-24.27 3.35 1.76 1.76 0 0 0-1.27.37q-5.93 6.19-11.71 12.51a.91.91 0 0 0-.16.87 42.73 42.73 0 0 1 4.43 14.55c1.1 7.61.84 15.08-2 22.34a75.77 75.77 0 0 0-2.53 7.49c-3.37 11.86 1.14 23 11.78 29.25a27.1 27.1 0 0 0 4 2c3.6 1.38 7.19 2.79 10.87 3.91a34.64 34.64 0 0 1 15.36 9.77l1.47 1.57.8-.87a34 34 0 0 1 15.82-10.37c1.16-.34 2.31-.75 3.46-1.13 4.32-1.44 8.63-2.92 12.48-5.4 8.95-5.77 13.09-14 11.82-24.59a46 46 0 0 0-3-10.48 43.33 43.33 0 0 1-2.83-20.33c.67-6.15 1.82-12.15 4.79-17.66.34-.63 0-.88-.33-1.23l-11.34-12.06a2 2 0 0 0-1.41-.54c-10.55.42-20.84-.77-30.15-6.23zM86.12 48.06h21.27v19.7h-5.11v-9.31c.25-3.59-3.46-5.91-6.52-5.35a5.18 5.18 0 0 0-4.57 5.52v9.09h-5.07zm37.02 19.67h-3.79v-6.26a3.45 3.45 0 0 0-3.36-3.57 3.42 3.42 0 0 0-1.58.32 3 3 0 0 0-2 3v6.24a.82.82 0 0 1-.1.26h-3.73V48.06h2.66l.15-2h10.94c.55 0 .91 0 .91.77v20.5a1.88 1.88 0 0 1-.1.4zM70.38 46.12h11.76l.15 1.85h2.63V67.7h-3.75c0-.33-.06-.69-.07-1.06v-5.41a3.46 3.46 0 0 0-6.91 0v6.47h-3.81zm32.32-23.64v16h-2.91v-3.31a3.03 3.03 0 1 0-6.06 0v3.18h-2.9V22.48zm-4.79 5.9v-3.87a1.4 1.4 0 0 0-1-.89 1.46 1.46 0 0 0-1.16.86 36.25 36.25 0 0 0-.06 3.9zm-2.78 0a15.6 15.6 0 0 0-.06-2.9 1.62 1.62 0 0 0-1.14-1c-.33-.05-1 .54-1.09.93a18.78 18.78 0 0 0 0 3zm5.63 0a15.28 15.28 0 0 0 0-2.87 1.12 1.12 0 0 0-2.22-.06 18.78 18.78 0 0 0 0 3zm.23 13.85v-2.68h3.54v2.69h4v-2.67h3.46v5.33H81.51v-5.34h3.48v2.67h4v-2.69h3.6v2.69z"/><path d="M82.2 38.37h-1.81c0-1.43.09-2.91-1.24-3.79a4.34 4.34 0 0 0-2-.68 2.56 2.56 0 0 0-2.55 1.49 15.43 15.43 0 0 0-.72 3h-1.69v-9.66h10zm39.16-9.63v9.61h-1.87c0-1.4.09-2.89-1.24-3.76a4.07 4.07 0 0 0-2-.69c-1.91-.05-2.71 1.12-3.17 4.47a4.44 4.44 0 0 0-.88.06 4.5 4.5 0 0 1-.9 0v-9.69zM79.61 72.41h16.12a5.42 5.42 0 0 1-.43 1.42 2 2 0 0 1-1.93 1.23c-4.12-.08-8.24 0-12.36 0-1.4 0-1.4 0-1.4-1.41zm34.24.07v2.5H99.6l-.37-2.5zM80.36 43.06H65.78v-3.5h2.33l.16 1.61h3.79l.13-1.61h2.58l.16 1.61h4.59a7.36 7.36 0 0 1 0-1.15c0-.18.23-.33.36-.5.15.18.43.35.44.53.06.93.04 1.9.04 3.01zm40.99-3.5l.1 1.58h3.83l.13-1.6h2.36v3.45h-14.6v-3.06c0-.15.28-.29.43-.44.13.17.33.32.37.51a7.26 7.26 0 0 1 .06 1.14h4.58l.1-1.58zM97.38 87.34h-1.3c.34-1.24-.6-1.52-1.4-1.93l-5.81-3 3.86-2 3.15-1.61c.37-.18 1-.41 1.2-.24s.3.81.37 1l-5.74 2.81 4.82 2.48a.9.9 0 0 0 .68-.09l4.38-2.26c-.63-1-2.89-.69-2.14-2.81l5.23 2.71-6.18 3.21c-1.01.51-1.01.51-1.12 1.73zm-1.23.35h1.23v19.29h-1.23zm-1.34-16.41H81.67l-.09-.22c1.84-.7 3.23-2.39 5.47-2.22a8.7 8.7 0 0 0 2.28 0c2.32-.46 3.75.96 5.48 2.44zm-7.64-52.01v-2.28h2.37l.13 1.61h5.8l.13-1.6h2.39l.12 1.6h5.78l.1-1.54h2.38v2.24zm40.65 53.95h-12.83v-1.74h12.78zm-62.16-.02v-1.72h12.79v1.7zm44.85-48.3h4.48l.12-1.58h2.39l.13 1.59h4.46l.13-1.59h1.77v2.29h-15.33v-2.29h1.67zm1.62 46.37H99.47c1.48-1 2.34-2.54 4.21-2.44a3.7 3.7 0 0 0 .94 0c2.83-.48 5.09.82 7.51 2.44zM69.55 25.61v-2.29h1.72l.13 1.57h4.48l.11-1.59h2.36l.12 1.6h4.52l.11-1.58h1.72v2.29zm27.18 20.45h12.26a2.89 2.89 0 0 1 .83 0 .39.39 0 0 1 .33.46.4.4 0 0 1-.33.33 2.89 2.89 0 0 1-.83 0H84.44a2.18 2.18 0 0 1-.72 0 .84.84 0 0 1-.4-.47.79.79 0 0 1 .39-.34 3.84 3.84 0 0 1 .83 0z"/><path d="M125.91 70.37h-7.06c-1.39 0-2.79-.1-4.16 0a6.3 6.3 0 0 1-4.28-1.46 8.65 8.65 0 0 1 .89-.1h11.56a11.3 11.3 0 0 1 3.13 1.16zm-42.68-1.48c-1.38.83-2.46 1.56-4 1.52-3.51-.11-7 0-10.52 0h-1.06a5.32 5.32 0 0 1 3.62-1.57c3.57.1 7.15 0 10.73 0zm12.37 38.08h-7.21v-2.81h1.53l.18 1.32h3.37l.13-1.31h2zm-7.23-7.49h7.31v2.28a.78.78 0 0 1-.53.54 7.42 7.42 0 0 1-1.49 0l-.16-1.37h-3.4l-.16 1.3h-1.57zm8.46-78.18h-7.07c-.27 0-.53-.26-.8-.39.25-.16.5-.44.75-.44h14.15c.23 0 .46.25.69.39-.25.15-.5.43-.75.44h-6.97zm-19.58 5.45h5.09c.26 0 .51.26.77.39-.25.15-.51.42-.76.42H72.07c-.26 0-.52-.26-.78-.4.26-.15.51-.41.77-.41h5.19zm39.06.85h-5.2c-.24 0-.48-.23-.71-.36.24-.16.47-.45.72-.45h10.4c.24 0 .47.24.71.36-.24.16-.47.45-.72.46-1.73.01-3.46-.01-5.2-.01zM74.33 44.99h-5.09c-.25 0-.49-.3-.73-.45.24-.13.47-.37.71-.37h10.39c.25 0 .49.29.74.45-.24.13-.48.36-.72.37zm44.66 0h-5.1c-.25 0-.5-.29-.74-.45.23-.13.47-.37.71-.38h10.3c.27 0 .53.26.79.4-.25.14-.5.41-.76.42l-5.2.01zm-21.8 29.37a1.53 1.53 0 0 1 1.53 1.53v4.47a1.79 1.79 0 0 1-1.4 1.84 1.87 1.87 0 0 1-2.14-.72l.09-.33a4.22 4.22 0 0 1 .85.21c1 .47 1.77 0 1.81-1V76.2a3.33 3.33 0 0 0-.4-1 6.34 6.34 0 0 0-.34-.84zm1.57-.06l-2.5-2.56-3.9-3.1a1.76 1.76 0 0 1-.5-1.06 27.86 27.86 0 0 1 6.7 5.38 4.35 4.35 0 0 1 .43 1.26z"/><path d="M95.22 68.83h4.12l-2.13 1.9-2.07-1.67zm2.3 2.3l3.6-2.86c.18-.14.56 0 1.11 0-3.35 2.98-3.94 3.36-4.71 2.86zm-2.21 3.84c.6 1.19.39 3.18-.52 3.53l.2-3.52zm1.19-2.35l.67 3.15c-1.29-.08-1.7-1.41-.67-3.15zm1.06 35.75h-1.57c.1-.42.08-.84.28-1.07a.81.81 0 0 1 .85 0c.27.18.29.61.44 1.07z"/></svg>