<svg xmlns="http://www.w3.org/2000/svg" viewBox="0 0 156.14 160.68"  fill="#fff" xmlns:v="https://vecta.io/nano"><path d="M156.14-.04v104.21c.176 29.651-22.764 54.313-52.35 56.28-2.37.18-4.75.23-7.12.23H2.86c-2.81 0-2.8 0-2.8-2.82V4.61a15.7 15.7 0 0 0 0-1.94C-.22.67.51-.04 2.65-.04q75.44.13 150.87 0zM27.48 127.71l.37.07 2.16 9.87c.25 1.16.4 2.19 2.08 2.13 1.48 0 2.38-.27 2.72-1.95.52-2.53 1.33-5 2-7.5l2.25-8.66c-3.47-.57-3.47-.57-4.11 2.32l-2.42 10.85-2.34-11.3c-.26-1.27-.47-2.23-2.22-2.23s-2.19.8-2.48 2.24c-.45 2.18-1.06 4.32-1.58 6.49-.32 1.39-.59 2.79-.88 4.19a94.17 94.17 0 0 1-2.49-10.2c-.59-2.92-.79-3-4.14-2.3.12.66.21 1.35.38 2l3.44 14.26c.33 1.49 1.07 1.73 2.39 1.76a2 2 0 0 0 2.3-1.65 1.36 1.36 0 0 0 0-.2c.76-3.37 1.7-6.79 2.57-10.19zM17.8 66.53c0 4.17-.2 8.27.06 12.34a5.91 5.91 0 0 0 5.1 5.86c5.23 1 8.82-1.7 9.07-7 .13-2.87 0-5.75 0-8.62 0-3.1-.31-3.34-3.56-2.42v9.6a13.16 13.16 0 0 1-.29 3 3.2 3.2 0 0 1-3.34 2.77 3.27 3.27 0 0 1-3.32-2.82 10.25 10.25 0 0 1-.27-2.34v-7.77c0-3.07-.11-3.17-3.45-2.6zm84.06 45.43c3.58.46 3.58.46 3.59-2.59v-4.51c0-2.17.91-3.36 2.52-3.3 2.09.09 2.28 1.64 2.32 3.22 0 2-.09 4 .1 6a2.14 2.14 0 0 0 1.59 1.29c.61 0 1.79-.64 1.81-1a53.8 53.8 0 0 0-.11-8.61c-.42-3.32-3.69-4.78-6.72-3.31l-1.52.76v-4.3c0-3.07-.33-3.29-3.59-2.35v18.7zm-54.29-3.3c-1.22 2.58-1.11 3.06 1.51 3.43a17.69 17.69 0 0 0 5.53-.14 4.67 4.67 0 0 0 3.93-4.08 4.9 4.9 0 0 0-2.58-5.45 31.75 31.75 0 0 1-3.65-1.81c-.75-.54-1.67-1.75-1.5-2.39a3.4 3.4 0 0 1 2.38-1.59 15.08 15.08 0 0 1 3.9.46c.2-1.13 1.75-2.68-.45-3a17.49 17.49 0 0 0-6.72.32c-1.77.42-2.77 2.12-2.92 4.12a4.64 4.64 0 0 0 2.35 4.53 37.17 37.17 0 0 0 3.51 1.62c1.24.57 2.36 1.28 2 2.88s-1.76 2.05-3.16 2a31.16 31.16 0 0 1-4.17-.86zm-17.25-3.13c0-4.08-2.75-6.92-6.69-6.91a6.62 6.62 0 0 0-6.87 6.34v.64c0 4.15 2.59 6.84 6.66 6.86a6.57 6.57 0 0 0 6.89-6.25c.02-.25.02-.45.01-.68zm5.44-34.41v13.5h3.47v-7.37c0-2 1.14-3.34 2.68-3.21 1.9.17 2.17 1.61 2.2 3.13 0 2.08-.07 4.17.12 6.24 0 .48 1.07 1.21 1.65 1.22s1.73-.69 1.75-1.12a51 51 0 0 0-.12-8.38c-.4-3.37-3.76-5-6.85-3.48-.56.26-1.08.6-1.63.91l.07-.55zm86.12.46l4 10c1.36 3.28 1.22 3.8-1.79 5.57-1.41.83-1 1.84-.51 2.67a2.15 2.15 0 0 0 2.05.25 8.27 8.27 0 0 0 2.77-2.32c3.37-4.84 4.53-10.6 6.75-16-3.34-.8-3.65-.64-4.44 2.11l-1.91 6.64-2.08-6.26c-1-3.16-1-3.16-4.79-2.71zm-47.74 33.84c0-4.13-2.74-6.9-6.7-6.83s-6.76 2.88-6.76 7.1 2.68 6.8 6.74 6.76 6.8-2.77 6.72-7.03zm14.51-6.36h-3.48v7c0 2.29-1 3.66-2.57 3.53-2.15-.19-2.25-1.88-2.32-3.51v-7.05h-3.32c0 3.33-.23 6.57.07 9.75.25 2.64 2.27 4 5 3.61a18.36 18.36 0 0 0 3.4-1.14l-.17.41 3.46.68zm-42 31.72c-1.12.2-2.24.35-3.34.6-3.19.73-4.87 3.3-4 6 .81 2.44 3.52 3.27 6.54 2.06a3.29 3.29 0 0 1 1.46-.14c1 .11 2 .32 3.13.52v-7c0-5.53-3.36-7.91-8.7-6.19-1.69.54-2 1.38-.89 2.75 4.75-1 5.21-.85 5.86 1.4zM74.4 79.11c2.32 0 4.59.07 6.86 0a2.15 2.15 0 0 0 1.68-1 5.76 5.76 0 0 0-4.49-6.8 6 6 0 0 0-.61-.09c-3.89-.28-6.63 2.17-7 6.25s1.69 7 5.64 7.43a19.93 19.93 0 0 0 3.86-.16c1.85-.19 2.35-1.11 1.32-2.72-5.76.38-6.64.06-7.26-2.91zm-10.89 55c2.56 0 4.85.09 7.12-.07a2.2 2.2 0 0 0 1.62-1.32 5.78 5.78 0 0 0-3.77-6.32 6.28 6.28 0 0 0-7.42 2.89c-1.58 2.9-1.21 6.81.83 8.87 1.77 1.79 6.4 2.51 8.77 1.27a1.75 1.75 0 0 0 .73-1.32c0-1.66-1.2-1.16-2.18-1-3.19.58-4.69-.12-5.7-3zM40.25 95.39c.54-2.46.28-2.8-2-2.73-2.74.08-4.29 1.58-4.91 4.51-.14.66-1 1.15-1.17 1.81a6.32 6.32 0 0 0-.13 2.41c1.68.28 1.25 1.53 1.26 2.52v8c3.49.63 3.56.58 3.57-2.47v-7.78c2.2.12 3.45-.36 2.53-2.63l-2.44-.33c.06-2.74.34-3.04 3.29-3.31zm16.51-23.73l4.09 11.1c.42 1.18.82 2 2.34 2a2.4 2.4 0 0 0 2.58-2c.81-2.38 1.79-4.71 2.68-7.06l1.45-4c-3.42-.74-3.47-.74-4.39 2.26l-2.1 6.79-2.08-6.69c-.97-3.1-1.01-3.1-4.57-2.4zm42.86 38.43l-.9-.07c-.76-.59-2.07-1.1-2.16-1.77a50.34 50.34 0 0 1-.1-6.5c3.31-.29 3.38-.37 2.57-2.73l-2.54-.28-.16-1.6-.21-1.61c-3 0-3 0-3.45 2.85-.67.55-1.48.9-1.69 1.46-.36 1 0 1.77 1.3 2 .25 0 .49 1 .52 1.47.07 1.29 0 2.59 0 3.88a11.67 11.67 0 0 0 .52 3.37c.64 1.66 3.17 2.58 5 1.75.64-.35.89-1.47 1.3-2.22zm20.76-36c.7-2.34.7-2.34-2.57-3l-.31-3.56c-1.2 1-3.08 0-3.29 2.06-.1 1 0 1.89-1.36 1.94 0 .84-.07 2.37.17 2.43 1.39.32 1.12 1.31 1.14 2.2a46.56 46.56 0 0 0 .08 4.73 6.78 6.78 0 0 0 .93 2.8c.78 1.23 3.88 1.9 4.9 1 .52-.45.49-1.52.82-2.69-3 .58-3.26-1-3.21-2.89a15.63 15.63 0 0 0 0-2.37c-.26-2 .33-3.11 2.7-2.62zm-38.09 55c.94-2.17.8-2.6-1.37-2.83a6.34 6.34 0 0 0-3.75.39 5.44 5.44 0 0 0-2.52 3.32c-.13 1.09 1 2.45 1.88 3.5.44.55 1.48.58 2.08 1.06a9 9 0 0 1 1.35 1.9 6.59 6.59 0 0 1-2.17.91 11.7 11.7 0 0 1-2.86-.57c-1 2.26-.93 2.67 1.23 3a14.09 14.09 0 0 0 4.25-.09 3.55 3.55 0 0 0 3.11-3.39 3.84 3.84 0 0 0-2.29-4c-.83-.42-1.74-.7-2.53-1.18-.37-.22-.83-.87-.74-1.14a1.69 1.69 0 0 1 1.15-1 19.38 19.38 0 0 1 3.18.16zm20.49-55c.48-1.15 1.19-2.42-.53-2.64a10 10 0 0 0-5 .33 4.57 4.57 0 0 0-2.29 3.29c-.09 1.06 1 2.35 1.84 3.32.51.6 1.59.67 2.26 1.17a8.18 8.18 0 0 1 1.33 1.71c-.7.37-1.38 1-2.08 1a12.29 12.29 0 0 1-3-.6c-1 2.31-.85 2.72 1.31 3a14.2 14.2 0 0 0 4.46-.16 3.48 3.48 0 0 0 2.88-3.33 3.7 3.7 0 0 0-2.09-3.91c-.82-.44-1.76-.67-2.53-1.18-.46-.3-.68-.95-1-1.45.52-.3 1-.83 1.57-.86a15 15 0 0 1 2.84.33zm-48.74 46.49v19h3.29v-19zm39-46.39v-3.45l-4.24 1.79c-.13-1.48-1.38-1.39-2.37-1.07-.43.14-.81 1.18-.82 1.82-.08 3.23 0 6.47 0 9.71 0 1.31.49 1.75 1.78 1.74s1.89-.33 1.83-1.69c-.07-1.51 0-3 0-4.53 0-3 .67-3.77 3.8-4.32zm-38.29-2.92c-1.52.48-3.48-1.07-3.6 1.47-.16 3.5 0 7 0 10.53 0 1.37.8 1.44 1.83 1.44s1.84-.07 1.83-1.43c-.09-3.86-.06-7.75-.06-12.01zm55.51 6.9h0v-5.39c0-1.38-.79-1.46-1.82-1.46s-1.83.1-1.81 1.47v10.36c0 1.27.58 1.58 1.72 1.56s2-.09 1.94-1.57-.03-3.31-.03-4.97zm-1.73-13.07c-1 1.24-2 2-1.92 2.63a2.58 2.58 0 0 0 1.74 1.8 2.56 2.56 0 0 0 1.88-1.68c.11-.62-.84-1.44-1.7-2.75zm-55.52 5.43c.88-1.31 1.84-2.13 1.74-2.77a2.57 2.57 0 0 0-1.89-1.68 2.53 2.53 0 0 0-1.72 1.81c-.07.64.93 1.39 1.87 2.64zM26.74 105.8a12.94 12.94 0 0 1-1 2.75 2.48 2.48 0 0 1-4.48-.11 10.19 10.19 0 0 1-.5-4.71 2.59 2.59 0 0 1 2.72-2.44h.08a2.84 2.84 0 0 1 2.77 2.52 14.61 14.61 0 0 1 .41 1.99zm43.93.16a13.68 13.68 0 0 1-1.07 2.7 2.44 2.44 0 0 1-3.29 1 2.48 2.48 0 0 1-1.08-1.18 8.53 8.53 0 0 1-.43-4.74 3.61 3.61 0 0 1 2.59-2.26c.92 0 2 1.21 2.78 2.1.41.43.31 1.38.5 2.38zm-23.71 27.69c.13 2.55-.79 4-2.48 3.68a2.51 2.51 0 0 1-1.6-1.72c-.22-1.5 1.44-2.26 4.08-1.96zm32.6-57.32h-5a2.4 2.4 0 0 1 2.07-2.69 2.13 2.13 0 0 1 .44 0c1.58-.11 2.31.97 2.49 2.69zm-10.75 55.12h-5.12c.17-1.73 1-2.66 2.68-2.71s2.33.79 2.44 2.71z"/></svg>